<svg width="32" height="29" viewBox="0 0 32 29" fill="none" xmlns="http://www.w3.org/2000/svg">
<path d="M25.75 21.4192H29" stroke="#263238" stroke-linecap="round" stroke-linejoin="round"/>
<path d="M30 21.4192H31" stroke="#263238" stroke-linecap="round" stroke-linejoin="round"/>
<path d="M6.25 21.4192H3" stroke="#263238" stroke-linecap="round" stroke-linejoin="round"/>
<path d="M2 21.4192H1" stroke="#263238" stroke-linecap="round" stroke-linejoin="round"/>
<path d="M27.75 7.77295H25.75" stroke="#263238" stroke-linecap="round" stroke-linejoin="round"/>
<path d="M31 5.57202H29" stroke="#263238" stroke-linecap="round" stroke-linejoin="round"/>
<path d="M30 4.69165V6.45117" stroke="#263238" stroke-linecap="round" stroke-linejoin="round"/>
<path d="M26.7499 6.89258V8.6521" stroke="#263238" stroke-linecap="round" stroke-linejoin="round"/>
<path d="M23.25 9.53372H8.75L9.61499 7.25782C9.94732 6.38244 10.5838 5.6212 11.4344 5.08166C12.2849 4.54213 13.3066 4.25161 14.355 4.25122H17.65C18.6983 4.25161 19.72 4.54213 20.5706 5.08166C21.4212 5.6212 22.0577 6.38244 22.39 7.25782L23.25 9.53372Z" fill="#9D55E1" stroke="#263238" stroke-linecap="round" stroke-linejoin="round"/>
<path d="M21.1699 8.21332L20.9699 7.67627C20.7371 7.06328 20.2912 6.53028 19.6954 6.15265C19.0996 5.77503 18.384 5.5719 17.6499 5.57202" stroke="#263238" stroke-linecap="round" stroke-linejoin="round"/>
<path d="M16 4.2513C17.1046 4.2513 18 3.46297 18 2.49052C18 1.51806 17.1046 0.729736 16 0.729736C14.8954 0.729736 14 1.51806 14 2.49052C14 3.46297 14.8954 4.2513 16 4.2513Z" fill="#9D55E1" stroke="#263238" stroke-linecap="round" stroke-linejoin="round"/>
<path d="M23.5 9.53369H8.5C8.22386 9.53369 8 9.73078 8 9.97391V11.2946C8 11.5377 8.22386 11.7348 8.5 11.7348H23.5C23.7761 11.7348 24 11.5377 24 11.2946V9.97391C24 9.73078 23.7761 9.53369 23.5 9.53369Z" fill="#9D55E1" stroke="#263238" stroke-linecap="round" stroke-linejoin="round"/>
<path d="M21.5 14.2659L21 14.5254C20.619 14.7158 20.1882 14.816 19.75 14.816C19.3118 14.816 18.881 14.7158 18.5 14.5254L18 14.2659" stroke="#263238" stroke-linecap="round" stroke-linejoin="round"/>
<path d="M14 14.2659L13.5 14.5254C13.119 14.7158 12.6882 14.816 12.25 14.816C11.8118 14.816 11.381 14.7158 11 14.5254L10.5 14.2659" stroke="#263238" stroke-linecap="round" stroke-linejoin="round"/>
<path d="M13 17.8359C13.8429 18.4519 14.9042 18.7891 16 18.7891C17.0958 18.7891 18.1571 18.4519 19 17.8359" stroke="#263238" stroke-linecap="round" stroke-linejoin="round"/>
<path d="M13.0501 17.8359L3.26514 17.6599C3.13253 17.6599 3.00534 17.7063 2.91158 17.7888C2.81781 17.8713 2.76514 17.9831 2.76514 18.0998V18.5177C2.76514 18.6344 2.81781 18.7462 2.91158 18.8287C3.00534 18.9112 3.13253 18.9576 3.26514 18.9576L14.2651 18.7552C14.3394 18.7526 14.412 18.7354 14.4777 18.705C14.5434 18.6745 14.6006 18.6316 14.6451 18.5793C14.0628 18.4267 13.5207 18.174 13.0501 17.8359Z" fill="#61B04C" stroke="#263238" stroke-linecap="round" stroke-linejoin="round"/>
<path d="M1.9998 11.0745L1.49981 12.0517C1.41679 12.2234 1.38471 12.4108 1.40657 12.5964C1.42844 12.7819 1.50353 12.9596 1.62481 13.1126L2.3398 13.993C2.4576 14.1439 2.53152 14.3179 2.55506 14.4999C2.57859 14.6818 2.55103 14.866 2.47479 15.0363L1.9748 16.1148" stroke="#263238" stroke-linecap="round" stroke-linejoin="round"/>
<path d="M3.4998 11.0745L2.99981 12.0517C2.91679 12.2234 2.88471 12.4108 2.90657 12.5964C2.92844 12.7819 3.00353 12.9596 3.12481 13.1126L3.8398 13.993C3.9576 14.1439 4.03152 14.3179 4.05506 14.4999C4.07859 14.6818 4.05103 14.866 3.97479 15.0363L3.4748 16.1148" stroke="#263238" stroke-linecap="round" stroke-linejoin="round"/>
<path d="M9.33496 19.7465C9.65089 20.0931 10.0439 20.3793 10.49 20.5873L14.24 22.3481C14.782 22.604 15.3875 22.7379 16.0025 22.7379C16.6175 22.7379 17.2229 22.604 17.765 22.3481L21.515 20.5873C22.1179 20.3089 22.6229 19.8906 22.9754 19.3778C23.3279 18.8649 23.5145 18.277 23.515 17.6776V16.1369C24.0454 16.1369 24.5541 15.9513 24.9292 15.6211C25.3043 15.2909 25.515 14.843 25.515 14.3761C25.515 13.9091 25.3043 13.4612 24.9292 13.1309C24.5541 12.8007 24.0454 12.6152 23.515 12.6152" stroke="#263238" stroke-linecap="round" stroke-linejoin="round"/>
<path d="M8.49999 12.6152C7.96956 12.6152 7.46085 12.8007 7.08578 13.1309C6.71071 13.4612 6.5 13.9091 6.5 14.3761C6.5 14.8431 6.71071 15.2909 7.08578 15.6211C7.46085 15.9514 7.96956 16.1369 8.49999 16.1369V16.8896" stroke="#263238" stroke-linecap="round" stroke-linejoin="round"/>
<path d="M11.665 22.2993L16 28.022L20.335 22.2993" stroke="#263238" stroke-linecap="round" stroke-linejoin="round"/>
<path d="M30.36 28.022C29.6472 26.3425 28.3691 24.8947 26.6964 23.872C25.0238 22.8494 23.0364 22.3007 21 22.2993H20.335" stroke="#263238" stroke-linecap="round" stroke-linejoin="round"/>
<path d="M11.67 22.2993H11C8.96446 22.3016 6.97816 22.8507 5.3065 23.8732C3.63485 24.8958 2.35746 26.3432 1.64502 28.022" stroke="#263238" stroke-linecap="round" stroke-linejoin="round"/>
<path d="M11 9.53369V11.7348" stroke="#263238" stroke-linecap="round" stroke-linejoin="round"/>
<path d="M13.5 9.53369V11.7348" stroke="#263238" stroke-linecap="round" stroke-linejoin="round"/>
<path d="M16 9.53369V11.7348" stroke="#263238" stroke-linecap="round" stroke-linejoin="round"/>
<path d="M18.5 9.53369V11.7348" stroke="#263238" stroke-linecap="round" stroke-linejoin="round"/>
<path d="M21 9.53369V11.7348" stroke="#263238" stroke-linecap="round" stroke-linejoin="round"/>
</svg>
