<svg width="30" height="25" viewBox="0 0 30 25" fill="none" xmlns="http://www.w3.org/2000/svg">
<path d="M15 24.2617C14.9329 24.2605 14.869 24.2341 14.8216 24.1882C14.7742 24.1423 14.747 24.0804 14.7457 24.0155V16.3829C14.7457 16.3176 14.7725 16.255 14.8202 16.2088C14.8679 16.1626 14.9325 16.1367 15 16.1367C15.0674 16.1367 15.1321 16.1626 15.1797 16.2088C15.2274 16.255 15.2542 16.3176 15.2542 16.3829V24.0155C15.2542 24.0808 15.2274 24.1434 15.1797 24.1896C15.1321 24.2358 15.0674 24.2617 15 24.2617Z" fill="#263238"/>
<path d="M16.5253 8.50412C16.5046 11.1974 15.988 13.8654 14.9999 16.383C12.9662 11.315 12.9662 5.6932 14.9999 0.625244C15.988 3.14283 16.5046 5.81089 16.5253 8.50412Z" fill="#61B04C"/>
<path d="M14.9999 16.6291C14.9499 16.6282 14.9012 16.6133 14.8597 16.5862C14.8182 16.5591 14.7856 16.521 14.766 16.4764C12.7051 11.3471 12.7051 5.6559 14.766 0.52663C14.7892 0.485537 14.8234 0.451242 14.865 0.427356C14.9066 0.403471 14.9541 0.390869 15.0025 0.390869C15.0508 0.390869 15.0983 0.403471 15.1399 0.427356C15.1815 0.451242 15.2157 0.485537 15.2389 0.52663C17.2929 5.65716 17.2929 11.3459 15.2389 16.4764C15.2184 16.5214 15.185 16.5597 15.1426 16.5868C15.1002 16.6138 15.0507 16.6285 14.9999 16.6291ZM14.9999 1.32929C13.3018 5.96937 13.3018 11.0337 14.9999 15.6737C16.6915 11.0326 16.6915 5.97046 14.9999 1.32929Z" fill="#263238"/>
<path d="M21.3052 12.0296C19.4603 13.7946 17.3372 15.264 15.0154 16.3827C17.3079 11.8333 21.1036 8.15569 25.8002 5.93335C24.648 8.1851 23.1304 10.2433 21.3052 12.0296Z" fill="#61B04C"/>
<path d="M15.0001 16.6291C14.9336 16.6258 14.8705 16.5996 14.8221 16.5552C14.7851 16.5201 14.7602 16.4746 14.7511 16.4252C14.742 16.3758 14.7491 16.3248 14.7713 16.2794C17.0939 11.6798 20.9336 7.9612 25.6831 5.71189C25.7301 5.69167 25.7823 5.68573 25.8328 5.69481C25.8833 5.7039 25.9298 5.72758 25.9662 5.76277C26.0025 5.79796 26.027 5.84301 26.0364 5.89195C26.0458 5.94088 26.0396 5.99143 26.0187 6.03691C23.6961 10.6366 19.8564 14.3551 15.1069 16.6045C15.0738 16.6208 15.0372 16.6292 15.0001 16.6291ZM25.2052 6.49979C21.1108 8.60681 17.7605 11.8514 15.5848 15.8166C19.6792 13.7095 23.0295 10.465 25.2052 6.49979Z" fill="#263238"/>
<path d="M8.7102 12.0296C10.5551 13.7946 12.6783 15.264 15 16.3827C12.7075 11.8333 8.91182 8.15569 4.21527 5.93335C5.36742 8.1851 6.88499 10.2433 8.7102 12.0296Z" fill="#61B04C"/>
<path d="M15 16.6292C14.9665 16.6364 14.9318 16.6364 14.8983 16.6292C10.1487 14.3799 6.30901 10.6613 3.9864 6.06156C3.96552 6.01608 3.95937 5.96554 3.96875 5.9166C3.97813 5.86767 4.0026 5.82265 4.03894 5.78745C4.07528 5.75226 4.12178 5.72855 4.17231 5.71947C4.22284 5.71038 4.27503 5.71635 4.32199 5.73657C9.07155 7.9859 12.9113 11.7044 15.2339 16.3042C15.2561 16.3495 15.2631 16.4005 15.254 16.4499C15.2449 16.4994 15.2201 16.5448 15.183 16.5799C15.1298 16.6165 15.0651 16.634 15 16.6292ZM4.79995 6.49983C6.97563 10.465 10.3259 13.7096 14.4203 15.8167C12.2446 11.8514 8.89434 8.60687 4.79995 6.49983Z" fill="#263238"/>
<path d="M20.0897 17.3663C18.3458 17.3519 16.6204 17.0179 15.0049 16.3821C16.6161 15.7324 18.3443 15.3979 20.0897 15.3979C21.8351 15.3979 23.5633 15.7324 25.1744 16.3821C23.5587 17.0171 21.8335 17.351 20.0897 17.3663Z" fill="#61B04C"/>
<path d="M20.0846 17.6139C18.3065 17.6108 16.5457 17.2765 14.8981 16.629C14.8537 16.6094 14.8161 16.5779 14.7897 16.5382C14.7633 16.4984 14.7493 16.4522 14.7493 16.405C14.7493 16.3577 14.7633 16.3115 14.7897 16.2717C14.8161 16.232 14.8537 16.2005 14.8981 16.1809C16.5424 15.5178 18.3059 15.1765 20.0871 15.1765C21.8682 15.1765 23.6318 15.5178 25.2761 16.1809C25.3205 16.2005 25.3581 16.232 25.3845 16.2717C25.4109 16.3115 25.4249 16.3577 25.4249 16.405C25.4249 16.4522 25.4109 16.4984 25.3845 16.5382C25.3581 16.5779 25.3205 16.6094 25.2761 16.629C23.6268 17.2768 21.8643 17.6112 20.0846 17.6139ZM15.7167 16.3828C18.5415 17.3679 21.6326 17.3679 24.4574 16.3828C21.6326 15.3977 18.5415 15.3977 15.7167 16.3828Z" fill="#263238"/>
<path d="M17.6999 20.0367C16.604 18.9674 15.6939 17.7335 15.0049 16.3828C17.8197 17.7167 20.0955 19.9207 21.4728 22.6467C20.0794 21.9772 18.8057 21.0961 17.6999 20.0367Z" fill="#61B04C"/>
<path d="M21.4729 22.8926C21.4377 22.8997 21.4013 22.8997 21.3661 22.8926C19.9441 22.2098 18.6446 21.3104 17.517 20.2286C16.4001 19.1377 15.4728 17.8788 14.7712 16.501C14.7503 16.4555 14.7442 16.405 14.7535 16.3561C14.7629 16.3071 14.7874 16.2621 14.8237 16.2269C14.8601 16.1917 14.9066 16.168 14.9571 16.1589C15.0076 16.1498 15.0598 16.1558 15.1068 16.176C16.5308 16.8534 17.831 17.7516 18.9559 18.8351C20.0745 19.9276 21.0035 21.1881 21.7068 22.5676C21.7269 22.6134 21.7328 22.6639 21.7238 22.7128C21.7147 22.7618 21.6912 22.8072 21.6559 22.8434C21.6029 22.8804 21.538 22.8978 21.4729 22.8926ZM17.878 19.8643C18.7727 20.7146 19.7757 21.4509 20.8627 22.0555C19.6284 19.9272 17.813 18.1691 15.6153 16.9737C16.2396 18.0265 16.9999 18.9978 17.878 19.8643Z" fill="#263238"/>
<path d="M12.3052 20.0367C13.4016 18.9668 14.3132 17.733 15.0052 16.3828C12.1877 17.7146 9.90968 19.919 8.53235 22.6467C9.92569 21.9772 11.1994 21.0961 12.3052 20.0367Z" fill="#61B04C"/>
<path d="M8.53209 22.8925C8.46438 22.8922 8.39919 22.8676 8.34904 22.8236C8.31382 22.7873 8.29025 22.742 8.28122 22.693C8.27219 22.6441 8.27808 22.5936 8.29818 22.5478C9.70195 19.7592 12.0289 17.5057 14.9084 16.1462C14.9553 16.126 15.0075 16.1201 15.058 16.1291C15.1086 16.1382 15.1551 16.1619 15.1914 16.1971C15.2277 16.2323 15.2522 16.2773 15.2616 16.3263C15.271 16.3752 15.2648 16.4258 15.2439 16.4712C14.5423 17.8491 13.6151 19.1079 12.4982 20.1989C11.37 21.2822 10.0685 22.1818 8.64395 22.863C8.6099 22.8819 8.57138 22.8921 8.53209 22.8925ZM14.3897 16.9833C12.192 18.1787 10.3765 19.9369 9.14225 22.0652C11.34 20.8699 13.1554 19.1117 14.3897 16.9833Z" fill="#263238"/>
<path d="M9.91525 17.3663C8.17142 17.351 6.44625 17.0171 4.83051 16.3821C6.44167 15.7324 8.16982 15.3979 9.91525 15.3979C11.6607 15.3979 13.3888 15.7324 15 16.3821C13.3845 17.0179 11.6592 17.3519 9.91525 17.3663Z" fill="#61B04C"/>
<path d="M9.915 17.6139C8.13696 17.6108 6.37613 17.2765 4.72854 16.629C4.68415 16.6094 4.64652 16.5779 4.62013 16.5382C4.59375 16.4984 4.57971 16.4522 4.57971 16.405C4.57971 16.3577 4.59375 16.3115 4.62013 16.2717C4.64652 16.232 4.68415 16.2005 4.72854 16.1809C6.37285 15.5178 8.13639 15.1765 9.91753 15.1765C11.6987 15.1765 13.4622 15.5178 15.1065 16.1809C15.1509 16.2005 15.1886 16.232 15.2149 16.2717C15.2413 16.3115 15.2554 16.3577 15.2554 16.405C15.2554 16.4522 15.2413 16.4984 15.2149 16.5382C15.1886 16.5779 15.1509 16.6094 15.1065 16.629C13.4573 17.2768 11.6947 17.6112 9.915 17.6139ZM5.54719 16.3828C8.37198 17.3679 11.4631 17.3679 14.2879 16.3828C11.4631 15.3977 8.37198 15.3977 5.54719 16.3828Z" fill="#263238"/>
<path d="M1.27117 13.3047H0.254234C0.187215 13.3034 0.123301 13.2771 0.0759025 13.2312C0.0285036 13.1853 0.00130172 13.1235 0 13.0586C0 12.9933 0.0267813 12.9307 0.0744594 12.8846C0.122138 12.8384 0.186807 12.8125 0.254234 12.8125H1.27117C1.3386 12.8125 1.40326 12.8384 1.45094 12.8846C1.49862 12.9307 1.52541 12.9933 1.52541 13.0586C1.52541 13.1239 1.49862 13.1864 1.45094 13.2326C1.40326 13.2787 1.3386 13.3047 1.27117 13.3047Z" fill="#263238"/>
<path d="M6.3559 13.3047H2.28811C2.22109 13.3034 2.15718 13.2771 2.10978 13.2312C2.06238 13.1853 2.03518 13.1235 2.03387 13.0586C2.03387 12.9933 2.06066 12.9307 2.10833 12.8846C2.15601 12.8384 2.22068 12.8125 2.28811 12.8125H6.3559C6.42333 12.8125 6.48799 12.8384 6.53567 12.8846C6.58335 12.9307 6.61014 12.9933 6.61014 13.0586C6.61014 13.1239 6.58335 13.1864 6.53567 13.2326C6.48799 13.2787 6.42333 13.3047 6.3559 13.3047Z" fill="#263238"/>
<path d="M29.7458 13.3047H28.7288C28.6618 13.3034 28.5979 13.2771 28.5505 13.2312C28.5031 13.1853 28.4759 13.1235 28.4746 13.0586C28.4746 12.9933 28.5014 12.9307 28.5491 12.8846C28.5967 12.8384 28.6614 12.8125 28.7288 12.8125H29.7458C29.8132 12.8125 29.8779 12.8384 29.9255 12.8846C29.9732 12.9307 30 12.9933 30 13.0586C30 13.1239 29.9732 13.1864 29.9255 13.2326C29.8779 13.2787 29.8132 13.3047 29.7458 13.3047Z" fill="#263238"/>
<path d="M27.7119 13.3047H23.6441C23.577 13.3034 23.5131 13.2771 23.4657 13.2312C23.4183 13.1853 23.3911 13.1235 23.3898 13.0586C23.3898 12.9933 23.4166 12.9307 23.4643 12.8846C23.512 12.8384 23.5766 12.8125 23.6441 12.8125H27.7119C27.7793 12.8125 27.8439 12.8384 27.8916 12.8846C27.9393 12.9307 27.9661 12.9933 27.9661 13.0586C27.9661 13.1239 27.9393 13.1864 27.8916 13.2326C27.8439 13.2787 27.7793 13.3047 27.7119 13.3047Z" fill="#263238"/>
<path d="M29.6896 5.30283H27.6557C27.5883 5.30283 27.5236 5.27689 27.4759 5.23075C27.4283 5.18461 27.4015 5.12206 27.4015 5.05681C27.4015 4.99156 27.4283 4.92897 27.4759 4.88284C27.5236 4.8367 27.5883 4.81079 27.6557 4.81079H29.6896C29.7571 4.81079 29.8217 4.8367 29.8694 4.88284C29.9171 4.92897 29.9439 4.99156 29.9439 5.05681C29.9439 5.12206 29.9171 5.18461 29.8694 5.23075C29.8217 5.27689 29.7571 5.30283 29.6896 5.30283Z" fill="#263238"/>
<path d="M27.1473 3.08676H25.1134C25.0459 3.08676 24.9813 3.06082 24.9336 3.01469C24.8859 2.96855 24.8591 2.90599 24.8591 2.84074C24.8591 2.7755 24.8859 2.71291 24.9336 2.66677C24.9813 2.62063 25.0459 2.59473 25.1134 2.59473H27.1473C27.2147 2.59473 27.2794 2.62063 27.327 2.66677C27.3747 2.71291 27.4015 2.7755 27.4015 2.84074C27.4015 2.90599 27.3747 2.96855 27.327 3.01469C27.2794 3.06082 27.2147 3.08676 27.1473 3.08676Z" fill="#263238"/>
<path d="M26.1303 4.07219C26.0629 4.07219 25.9982 4.04623 25.9506 4.00005C25.9029 3.95387 25.8761 3.89126 25.8761 3.82596V1.8561C25.8761 1.79079 25.9029 1.72815 25.9506 1.68197C25.9982 1.63579 26.0629 1.60986 26.1303 1.60986C26.1978 1.60986 26.2624 1.63579 26.3101 1.68197C26.3578 1.72815 26.3846 1.79079 26.3846 1.8561V3.82596C26.3846 3.89126 26.3578 3.95387 26.3101 4.00005C26.2624 4.04623 26.1978 4.07219 26.1303 4.07219Z" fill="#263238"/>
<path d="M28.6727 6.28792C28.6053 6.28792 28.5406 6.26196 28.4929 6.21578C28.4452 6.16961 28.4185 6.107 28.4185 6.04169V4.07191C28.4185 4.0066 28.4452 3.94397 28.4929 3.89779C28.5406 3.85161 28.6053 3.82568 28.6727 3.82568C28.7401 3.82568 28.8048 3.85161 28.8525 3.89779C28.9002 3.94397 28.9269 4.0066 28.9269 4.07191V6.04169C28.9269 6.107 28.9002 6.16961 28.8525 6.21578C28.8048 6.26196 28.7401 6.28792 28.6727 6.28792Z" fill="#263238"/>
</svg>
