<svg width="32" height="24" viewBox="0 0 32 24" fill="none" xmlns="http://www.w3.org/2000/svg">
<path d="M16 23.1716V16.6597" stroke="#263238" stroke-linecap="round" stroke-linejoin="round"/>
<path d="M22.9309 12.7626C20.9722 14.583 18.5894 15.9198 15.9844 16.6598C16.693 14.1134 18.079 11.7916 20.0042 9.92639C21.9293 8.06115 24.326 6.71771 26.9551 6.03027C26.1942 8.55594 24.8135 10.8658 22.9309 12.7626Z" fill="#9D55E1" stroke="#263238" stroke-linecap="round" stroke-linejoin="round"/>
<path d="M9.05349 12.7626C11.0123 14.583 13.395 15.9198 16 16.6598C15.2914 14.1134 13.9054 11.7916 11.9802 9.92639C10.0551 8.06115 7.65838 6.71771 5.02936 6.03027C5.79022 8.55594 7.17089 10.8658 9.05349 12.7626Z" fill="#9D55E1" stroke="#263238" stroke-linecap="round" stroke-linejoin="round"/>
<path d="M22.212 18.1624C20.3809 18.1138 18.5959 17.5952 17.0396 16.6597C18.5748 15.6796 20.3732 15.1572 22.212 15.1572C24.0507 15.1572 25.8491 15.6796 27.3844 16.6597C25.828 17.5952 24.0431 18.1138 22.212 18.1624Z" fill="#9D55E1" stroke="#263238" stroke-linecap="round" stroke-linejoin="round"/>
<path d="M18.3792 20.7322C17.2504 19.587 16.4344 18.1873 16.0051 16.6597C17.5968 17.041 19.0509 17.8359 20.2103 18.9588C21.3698 20.0817 22.1907 21.4899 22.5844 23.0314C21.007 22.6156 19.5617 21.8254 18.3792 20.7322Z" fill="#9D55E1" stroke="#263238" stroke-linecap="round" stroke-linejoin="round"/>
<path d="M13.6205 20.7322C14.7498 19.5866 15.5674 18.1871 15.9998 16.6597C14.4068 17.0397 12.9514 17.8341 11.7909 18.9571C10.6304 20.0802 9.80892 21.489 9.41528 23.0314C10.9927 22.6156 12.438 21.8254 13.6205 20.7322Z" fill="#9D55E1" stroke="#263238" stroke-linecap="round" stroke-linejoin="round"/>
<path d="M9.79308 18.1624C7.96196 18.1138 6.17701 17.5952 4.62067 16.6597C6.15591 15.6796 7.9543 15.1572 9.79308 15.1572C11.6319 15.1572 13.4302 15.6796 14.9655 16.6597C13.4091 17.5952 11.6242 18.1138 9.79308 18.1624Z" fill="#9D55E1" stroke="#263238" stroke-linecap="round" stroke-linejoin="round"/>
<path d="M2.03448 13.5291H1" stroke="#263238" stroke-linecap="round" stroke-linejoin="round"/>
<path d="M7.2069 13.5291H3.06897" stroke="#263238" stroke-linecap="round" stroke-linejoin="round"/>
<path d="M29.9655 13.5291H31" stroke="#263238" stroke-linecap="round" stroke-linejoin="round"/>
<path d="M24.7931 13.5291H28.931" stroke="#263238" stroke-linecap="round" stroke-linejoin="round"/>
<path d="M28.869 5.13867H30.9379" stroke="#263238" stroke-linecap="round" stroke-linejoin="round"/>
<path d="M26.2827 2.88452H28.3517" stroke="#263238" stroke-linecap="round" stroke-linejoin="round"/>
<path d="M27.3172 1.88257V3.88481" stroke="#263238" stroke-linecap="round" stroke-linejoin="round"/>
<path d="M29.9034 4.13672V6.13892" stroke="#263238" stroke-linecap="round" stroke-linejoin="round"/>
<path d="M18.3275 8.64506C18.2603 11.4637 17.4597 14.2204 15.9999 16.6597C14.4775 14.2464 13.6719 11.4731 13.6719 8.64506C13.6719 5.81698 14.4775 3.0437 15.9999 0.630371C17.4607 3.06931 18.2614 5.82624 18.3275 8.64506Z" fill="#9D55E1" stroke="#263238" stroke-linecap="round" stroke-linejoin="round"/>
</svg>
