<svg width="32" height="27" viewBox="0 0 32 27" fill="none" xmlns="http://www.w3.org/2000/svg">
<path d="M19.7469 10.915H9.03442V18.6959H19.7469V10.915Z" fill="#9D55E1" stroke="#263238" stroke-linecap="round" stroke-linejoin="round"/>
<path d="M19.7521 3.13403V25.9578C19.7521 26.0954 19.6957 26.2273 19.5952 26.3246C19.4948 26.4218 19.3585 26.4765 19.2165 26.4765H9.57524C9.43318 26.4765 9.29694 26.4218 9.19649 26.3246C9.09604 26.2273 9.03961 26.0954 9.03961 25.9578V3.13403" stroke="#263238" stroke-linecap="round" stroke-linejoin="round"/>
<path d="M7.96315 10.915H3.67816V18.6959H7.96315V10.915Z" fill="#FF810B"/>
<path d="M7.96315 10.915H3.67816V18.6959H7.96315" stroke="#263238" stroke-linecap="round" stroke-linejoin="round"/>
<path d="M22.4731 25.4378L24.1818 23.6235L25.885 25.4378" stroke="#263238" stroke-linecap="round" stroke-linejoin="round"/>
<path d="M24.1815 26.4767V23.6235" stroke="#263238" stroke-linecap="round" stroke-linejoin="round"/>
<path d="M25.5206 18.4364C25.4893 20.2419 25.0313 22.0163 24.1815 23.6236C23.3023 22.0272 22.8425 20.2457 22.8425 18.4364C22.8425 16.6272 23.3023 14.8457 24.1815 13.2493C25.0323 14.8561 25.4905 16.6309 25.5206 18.4364Z" fill="#467245" stroke="#263238" stroke-linecap="round" stroke-linejoin="round"/>
<path d="M28.3487 21.056C27.1591 22.1894 25.7403 23.0724 24.1815 23.6495C24.7497 22.1326 25.6548 20.7551 26.833 19.6141C28.0112 18.4732 29.4337 17.5966 31 17.0464C30.4087 18.5445 29.5064 19.9091 28.3487 21.056Z" fill="#467245" stroke="#263238" stroke-linecap="round" stroke-linejoin="round"/>
<path d="M20.0146 21.056C21.2032 22.1906 22.6223 23.0738 24.1818 23.6495C23.6136 22.1326 22.7085 20.7551 21.5303 19.6141C20.3521 18.4732 18.9296 17.5966 17.3632 17.0464C17.952 18.5457 18.8547 19.9108 20.0146 21.056Z" fill="#467245" stroke="#263238" stroke-linecap="round" stroke-linejoin="round"/>
<path d="M20.9677 24.4005C22.0863 24.3822 23.1856 24.1162 24.1815 23.623C23.1924 23.1125 22.0887 22.8455 20.9677 22.8455C19.8468 22.8455 18.7431 23.1125 17.754 23.623C18.7494 24.1172 19.849 24.3833 20.9677 24.4005Z" fill="#467245" stroke="#263238" stroke-linecap="round" stroke-linejoin="round"/>
<path d="M27.3952 24.4005C28.5138 24.3822 29.6131 24.1162 30.609 23.623C29.6199 23.1125 28.5162 22.8455 27.3952 22.8455C26.2743 22.8455 25.1706 23.1125 24.1815 23.623C25.177 24.1172 26.2766 24.3833 27.3952 24.4005Z" fill="#467245" stroke="#263238" stroke-linecap="round" stroke-linejoin="round"/>
<path d="M20.0148 0.540527H8.76658C8.47077 0.540527 8.23096 0.772763 8.23096 1.05924V2.61538C8.23096 2.90186 8.47077 3.13409 8.76658 3.13409H20.0148C20.3106 3.13409 20.5504 2.90186 20.5504 2.61538V1.05924C20.5504 0.772763 20.3106 0.540527 20.0148 0.540527Z" stroke="#263238" stroke-linecap="round" stroke-linejoin="round"/>
<path d="M3.68335 3.13403V25.9578C3.68335 26.0954 3.73978 26.2273 3.84023 26.3246C3.94068 26.4218 4.07692 26.4765 4.21897 26.4765H8.06474" stroke="#263238" stroke-linecap="round" stroke-linejoin="round"/>
<path d="M7.26132 0.540527H3.41551C3.27345 0.540527 3.13721 0.595153 3.03676 0.692431C2.93631 0.789708 2.87988 0.921669 2.87988 1.05924V2.61538C2.87988 2.75295 2.93631 2.88485 3.03676 2.98213C3.13721 3.0794 3.27345 3.13409 3.41551 3.13409H7.26132" stroke="#263238" stroke-linecap="round" stroke-linejoin="round"/>
<path d="M16.5331 14.0273H15.194V12.7305H13.5872V14.0273H12.2481V15.5834H13.5872V16.8802H15.194V15.5834H16.5331V14.0273Z" fill="white" stroke="#263238" stroke-linecap="round" stroke-linejoin="round"/>
<path d="M28.8525 3.91211H30.995" stroke="#263238" stroke-linecap="round" stroke-linejoin="round"/>
<path d="M26.4423 1.57788H28.5848" stroke="#263238" stroke-linecap="round" stroke-linejoin="round"/>
<path d="M27.5135 0.540527V2.61542" stroke="#263238" stroke-linecap="round" stroke-linejoin="round"/>
<path d="M29.9238 2.87476V4.94894" stroke="#263238" stroke-linecap="round" stroke-linejoin="round"/>
<path d="M1 25.1797V26.2164" stroke="#263238" stroke-linecap="round" stroke-linejoin="round"/>
<path d="M1 18.696V24.1426" stroke="#263238" stroke-linecap="round" stroke-linejoin="round"/>
<path d="M22.425 4.17166V3.13403" stroke="#263238" stroke-linecap="round" stroke-linejoin="round"/>
<path d="M22.425 10.6555V5.20898" stroke="#263238" stroke-linecap="round" stroke-linejoin="round"/>
<path d="M15.4671 4.69043H17.6096C17.7517 4.69043 17.8879 4.74505 17.9884 4.84233C18.0888 4.93961 18.1452 5.07157 18.1452 5.20914V7.28397" stroke="#263238" stroke-linecap="round" stroke-linejoin="round"/>
</svg>
