<svg width="32" height="27" viewBox="0 0 32 27" fill="none" xmlns="http://www.w3.org/2000/svg">
<path d="M13.7335 26.1451H11.3146C10.9938 26.1451 10.6862 26.0218 10.4593 25.8022C10.2325 25.5827 10.1051 25.285 10.1051 24.9746V24.7405H14.943V24.9746C14.943 25.285 14.8156 25.5827 14.5888 25.8022C14.3619 26.0218 14.0543 26.1451 13.7335 26.1451Z" fill="#F37B2F"/>
<path d="M23.2979 18.6485L24.8363 17.0098L26.3796 18.6485" stroke="#263238" stroke-linecap="round" stroke-linejoin="round"/>
<path d="M24.8361 19.5866V17.0098" stroke="#263238" stroke-linecap="round" stroke-linejoin="round"/>
<path d="M26.0508 12.3244C26.0226 13.9551 25.6089 15.5579 24.8414 17.0096C24.0473 15.5677 23.6319 13.9586 23.6319 12.3244C23.6319 10.6902 24.0473 9.08111 24.8414 7.63916C25.6098 9.09054 26.0236 10.6935 26.0508 12.3244Z" fill="#61B04C" stroke="#263238" stroke-linecap="round" stroke-linejoin="round"/>
<path d="M28.6052 14.6907C27.5285 15.7061 26.2472 16.4956 24.8413 17.0099C25.3545 15.6398 26.172 14.3955 27.2362 13.365C28.3004 12.3344 29.5852 11.5426 31 11.0457C30.4689 12.4071 29.6537 13.648 28.6052 14.6907Z" fill="#61B04C" stroke="#263238" stroke-linecap="round" stroke-linejoin="round"/>
<path d="M21.0773 14.6907C22.1531 15.7071 23.4347 16.4968 24.8412 17.0099C24.328 15.6398 23.5104 14.3955 22.4462 13.365C21.3821 12.3344 20.0972 11.5426 18.6825 11.0457C19.2113 12.4082 20.0268 13.6495 21.0773 14.6907Z" fill="#61B04C" stroke="#263238" stroke-linecap="round" stroke-linejoin="round"/>
<path d="M21.9386 17.7116C22.9489 17.6951 23.9419 17.4548 24.8414 17.0094C23.948 16.5483 22.9511 16.3071 21.9386 16.3071C20.9262 16.3071 19.9292 16.5483 19.0359 17.0094C19.935 17.4558 20.9282 17.6961 21.9386 17.7116Z" fill="#61B04C" stroke="#263238" stroke-linecap="round" stroke-linejoin="round"/>
<path d="M27.7441 17.7116C28.7543 17.6951 29.7473 17.4548 30.6468 17.0094C29.7534 16.5483 28.7565 16.3071 27.7441 16.3071C26.7316 16.3071 25.7347 16.5483 24.8413 17.0094C25.7404 17.4558 26.7336 17.6961 27.7441 17.7116Z" fill="#61B04C" stroke="#263238" stroke-linecap="round" stroke-linejoin="round"/>
<path d="M27.497 20.5237H22.1753C21.9081 20.5237 21.6915 20.7333 21.6915 20.9919V21.46C21.6915 21.7186 21.9081 21.9282 22.1753 21.9282H27.497C27.7642 21.9282 27.9808 21.7186 27.9808 21.46V20.9919C27.9808 20.7333 27.7642 20.5237 27.497 20.5237Z" fill="#F37B2F" stroke="#263238" stroke-linecap="round" stroke-linejoin="round"/>
<path d="M26.3509 26.1461H23.2981C23.1822 26.1476 23.0695 26.1086 22.9807 26.0364C22.8919 25.9642 22.8329 25.8634 22.8143 25.7526L22.1564 21.9294H27.4781L26.8346 25.7526C26.8161 25.8634 26.7571 25.9642 26.6683 26.0364C26.5795 26.1086 26.4668 26.1476 26.3509 26.1461Z" fill="#F37B2F" stroke="#263238" stroke-linecap="round" stroke-linejoin="round"/>
<path d="M7.61333 7.05371H6.64575" stroke="#263238" stroke-linecap="round" stroke-linejoin="round"/>
<path d="M12.4513 7.05371H8.58099" stroke="#263238" stroke-linecap="round" stroke-linejoin="round"/>
<path d="M2.93516 3.89111H1" stroke="#263238" stroke-linecap="round" stroke-linejoin="round"/>
<path d="M5.35411 1.78271H3.41895" stroke="#263238" stroke-linecap="round" stroke-linejoin="round"/>
<path d="M4.38654 0.845703V2.71844" stroke="#263238" stroke-linecap="round" stroke-linejoin="round"/>
<path d="M1.96759 2.9541V4.8269" stroke="#263238" stroke-linecap="round" stroke-linejoin="round"/>
<path d="M5.62029 24.1454C5.09757 24.605 4.43959 24.895 3.73834 24.9747C3.81653 24.2972 4.11077 23.6601 4.58014 23.1521C5.10176 22.6908 5.76032 22.4006 6.4621 22.3228C6.3839 23.0002 6.08966 23.6373 5.62029 24.1454V24.1454Z" stroke="#263238" stroke-linecap="round" stroke-linejoin="round"/>
<path d="M1.85631 24.1454C2.37902 24.605 3.03702 24.895 3.73826 24.9747C3.68966 24.2869 3.38555 23.6393 2.88218 23.1518C2.37881 22.6643 1.71021 22.3698 1 22.3228C1.08228 23.0019 1.38167 23.6391 1.85631 24.1454Z" stroke="#263238" stroke-linecap="round" stroke-linejoin="round"/>
<path d="M2.19482 25.6769L3.73812 24.9746L5.27657 25.6769" stroke="#263238" stroke-linecap="round" stroke-linejoin="round"/>
<path d="M3.73834 26.1451V24.9746" stroke="#263238" stroke-linecap="round" stroke-linejoin="round"/>
<path d="M4.46385 22.6321C4.44039 23.4614 4.18996 24.2698 3.73816 24.9747C3.26459 24.2795 3.01215 23.465 3.01215 22.6321C3.01215 21.7993 3.26459 20.9848 3.73816 20.2896C4.18996 20.9944 4.44039 21.8028 4.46385 22.6321V22.6321Z" stroke="#263238" stroke-linecap="round" stroke-linejoin="round"/>
<path d="M10.9805 24.0363L12.519 22.3977L14.0623 24.0363" stroke="#263238" stroke-linecap="round" stroke-linejoin="round"/>
<path d="M12.5189 25.4432V22.3977" stroke="#263238" stroke-linecap="round" stroke-linejoin="round"/>
<path d="M13.4917 18.6497C13.4687 19.9543 13.1377 21.2364 12.5241 22.3979C11.8888 21.2443 11.5565 19.9571 11.5565 18.6497C11.5565 17.3424 11.8888 16.0552 12.5241 14.9016C13.1385 16.0628 13.4695 17.3451 13.4917 18.6497Z" fill="#61B04C" stroke="#263238" stroke-linecap="round" stroke-linejoin="round"/>
<path d="M14.4592 23.0997C13.7543 23.0665 13.0777 22.8209 12.524 22.3974C13.06 21.9443 13.7475 21.6946 14.4592 21.6946C15.1709 21.6946 15.8584 21.9443 16.3944 22.3974C15.8407 22.8209 15.1641 23.0665 14.4592 23.0997Z" fill="#61B04C" stroke="#263238" stroke-linecap="round" stroke-linejoin="round"/>
<path d="M10.5888 23.0997C11.2938 23.0665 11.9703 22.8209 12.524 22.3974C11.988 21.9443 11.3005 21.6946 10.5888 21.6946C9.87718 21.6946 9.18965 21.9443 8.65369 22.3974C9.20737 22.8209 9.88394 23.0665 10.5888 23.0997Z" fill="#61B04C" stroke="#263238" stroke-linecap="round" stroke-linejoin="round"/>
<path d="M15.4316 20.5753C14.5996 21.3647 13.6125 21.9845 12.5288 22.3979C12.9413 21.3397 13.5818 20.3788 14.4076 19.579C15.2335 18.7793 16.2257 18.159 17.3183 17.7595C16.889 18.8103 16.2475 19.7675 15.4316 20.5753Z" fill="#61B04C" stroke="#263238" stroke-linecap="round" stroke-linejoin="round"/>
<path d="M9.61633 20.5753C10.4483 21.3647 11.4354 21.9844 12.5191 22.3978C12.0907 21.3491 11.4509 20.3934 10.6371 19.5867C9.80544 18.7981 8.81821 18.1798 7.73438 17.7688C8.16182 18.8166 8.80174 19.7709 9.61633 20.5753Z" fill="#61B04C" stroke="#263238" stroke-linecap="round" stroke-linejoin="round"/>
<path d="M1.08221 13.6131L5.92013 8.9278H13.177L20.4339 1.8999" stroke="#263238" stroke-linecap="round" stroke-linejoin="round"/>
<path d="M18.0536 1.8999H20.4725V4.24246" stroke="#263238" stroke-linecap="round" stroke-linejoin="round"/>
</svg>
