<svg width="32" height="31" viewBox="0 0 32 31" fill="none" xmlns="http://www.w3.org/2000/svg">
<path d="M3.7778 22.0356H2.66669" stroke="#263238" stroke-linecap="round" stroke-linejoin="round"/>
<path d="M12.1111 22.0356H4.88892" stroke="#263238" stroke-linecap="round" stroke-linejoin="round"/>
<path d="M28.2222 8.31616H29.3333" stroke="#263238" stroke-linecap="round" stroke-linejoin="round"/>
<path d="M19.8889 8.31616H27.1111" stroke="#263238" stroke-linecap="round" stroke-linejoin="round"/>
<path d="M22.1111 4.5498H19.8889" stroke="#263238" stroke-linecap="round" stroke-linejoin="round"/>
<path d="M24.8889 2.12891H22.6667" stroke="#263238" stroke-linecap="round" stroke-linejoin="round"/>
<path d="M23.7778 1.05273V3.20483" stroke="#263238" stroke-linecap="round" stroke-linejoin="round"/>
<path d="M21 3.47388V5.62598" stroke="#263238" stroke-linecap="round" stroke-linejoin="round"/>
<path d="M8.77777 15.5793C13.0733 15.5793 16.5555 12.2071 16.5555 8.04712C16.5555 3.88719 13.0733 0.514893 8.77777 0.514893C4.48223 0.514893 1 3.88719 1 8.04712C1 12.2071 4.48223 15.5793 8.77777 15.5793Z" stroke="#263238" stroke-linecap="round" stroke-linejoin="round"/>
<path d="M7.38885 1.73072V14.3581C7.84529 14.4535 8.31081 14.5022 8.77776 14.5034C9.24466 14.5014 9.7101 14.4527 10.1667 14.3581V1.73072C9.7099 1.63787 9.24446 1.59098 8.77776 1.59083C8.31101 1.59024 7.84549 1.63713 7.38885 1.73072Z" fill="#F37B2F"/>
<path d="M10.1667 14.3634V1.73071" stroke="#263238" stroke-linecap="round" stroke-linejoin="round"/>
<path d="M7.38885 1.73071V14.3634" stroke="#263238" stroke-linecap="round" stroke-linejoin="round"/>
<path d="M7.38864 6.18012L5.07198 4.68448C4.88852 4.57413 4.66798 4.53704 4.45685 4.58107C4.24573 4.6251 4.06049 4.74678 3.94019 4.92048C3.8199 5.09418 3.77394 5.30634 3.81199 5.51221C3.85005 5.71809 3.96915 5.90162 4.1442 6.02411L7.38864 8.11697V6.18012Z" fill="#F37B2F" stroke="#263238" stroke-linecap="round" stroke-linejoin="round"/>
<path d="M13.6334 8.67118C13.5102 8.49363 13.3194 8.37069 13.1027 8.32933C12.886 8.28797 12.6613 8.33158 12.4778 8.4506L10.1667 9.94632V11.8833L13.4056 9.7903C13.5889 9.67107 13.7159 9.48624 13.7586 9.27641C13.8013 9.06657 13.7563 8.84888 13.6334 8.67118Z" fill="#F37B2F" stroke="#263238" stroke-linecap="round" stroke-linejoin="round"/>
<path d="M23.2222 29.568C27.5178 29.568 31 26.1957 31 22.0357C31 17.8757 27.5178 14.5034 23.2222 14.5034C18.9267 14.5034 15.4445 17.8757 15.4445 22.0357C15.4445 26.1957 18.9267 29.568 23.2222 29.568Z" stroke="#263238" stroke-linecap="round" stroke-linejoin="round"/>
<path d="M22.3889 15.6333V28.4167C22.6651 28.4529 22.9434 28.4727 23.2222 28.4759C23.5009 28.4723 23.7792 28.4525 24.0555 28.4167V15.6333C23.7791 15.5993 23.5008 15.5813 23.2222 15.5795C22.9435 15.581 22.6652 15.5989 22.3889 15.6333Z" fill="#61B04C"/>
<path d="M24.0555 28.4382V15.6334" stroke="#263238" stroke-linecap="round" stroke-linejoin="round"/>
<path d="M22.3889 15.6334V28.4382" stroke="#263238" stroke-linecap="round" stroke-linejoin="round"/>
<path d="M22.3886 22.1379L19.5164 20.2871C19.3329 20.1768 19.1124 20.1397 18.9013 20.1837C18.6901 20.2278 18.5049 20.3494 18.3846 20.5231C18.2643 20.6969 18.2183 20.909 18.2564 21.1149C18.2944 21.3208 18.4136 21.5043 18.5886 21.6268L22.3886 24.0802V22.1379Z" fill="#61B04C" stroke="#263238" stroke-linecap="round" stroke-linejoin="round"/>
<path d="M19.161 21.998L17.4943 22.9557C17.3366 23.0463 17.2142 23.1847 17.146 23.3494C17.0778 23.5142 17.0675 23.6961 17.1169 23.8671C17.1662 24.038 17.2724 24.1884 17.419 24.2951C17.5656 24.4017 17.7443 24.4585 17.9276 24.4568C18.0788 24.4567 18.227 24.4157 18.3554 24.3384L20.6776 22.988L19.161 21.998Z" fill="#61B04C" stroke="#263238" stroke-linecap="round" stroke-linejoin="round"/>
</svg>
