<svg width="32" height="33" viewBox="0 0 32 33" fill="none" xmlns="http://www.w3.org/2000/svg">
<path d="M27.4 2.09875H29.8" stroke="#263238" stroke-linecap="round" stroke-linejoin="round"/>
<path d="M28.6 0.936768V3.26099" stroke="#263238" stroke-linecap="round" stroke-linejoin="round"/>
<path d="M24.4 5.00415H26.8" stroke="#263238" stroke-linecap="round" stroke-linejoin="round"/>
<path d="M25.6 3.84204V6.16635" stroke="#263238" stroke-linecap="round" stroke-linejoin="round"/>
<path d="M16.9 1.80835H18.7C18.8592 1.80835 19.0118 1.86952 19.1243 1.97841C19.2368 2.08729 19.3 2.23498 19.3 2.38896V3.25989H16.3V2.38896C16.3 2.23498 16.3633 2.08729 16.4758 1.97841C16.5883 1.86952 16.7409 1.80835 16.9 1.80835Z" stroke="#263238" stroke-linecap="round" stroke-linejoin="round"/>
<path d="M16.3 17.7878H19.3V18.949C19.3 19.103 19.2368 19.2507 19.1243 19.3596C19.0118 19.4685 18.8592 19.5296 18.7 19.5296H16.9C16.7409 19.5296 16.5883 19.4685 16.4758 19.3596C16.3633 19.2507 16.3 19.103 16.3 18.949V17.7878Z" stroke="#263238" stroke-linecap="round" stroke-linejoin="round"/>
<path d="M30.4 29.4089H5.19998C4.8686 29.4089 4.59998 29.6691 4.59998 29.99V31.1522C4.59998 31.4731 4.8686 31.7333 5.19998 31.7333H30.4C30.7314 31.7333 31 31.4731 31 31.1522V29.99C31 29.6691 30.7314 29.4089 30.4 29.4089Z" stroke="#263238" stroke-linecap="round" stroke-linejoin="round"/>
<path d="M20.8 12.8486C22.1255 12.8486 23.2 11.808 23.2 10.5244C23.2 9.24078 22.1255 8.2002 20.8 8.2002C19.4745 8.2002 18.4 9.24078 18.4 10.5244C18.4 11.808 19.4745 12.8486 20.8 12.8486Z" fill="#9D55E1" stroke="#263238" stroke-linecap="round" stroke-linejoin="round"/>
<path d="M28.9181 13.8944C28.3171 12.7912 27.4729 11.8294 26.4453 11.0773C25.4178 10.3252 24.232 9.80113 22.972 9.54224C23.1491 9.9147 23.2213 10.326 23.1813 10.7342C23.1412 11.1424 22.9904 11.533 22.7441 11.8665C24.1386 12.2123 25.3685 13.0106 26.2289 14.1283C27.0892 15.2459 27.528 16.6154 27.472 18.0084C27.375 19.6078 26.646 21.1097 25.4361 22.2024C24.2262 23.2951 22.6284 23.8948 20.9741 23.8771H12.4C12.2409 23.8771 12.0883 23.9383 11.9758 24.0473C11.8633 24.1563 11.8 24.3041 11.8 24.4582V25.6203C11.8 25.7744 11.8633 25.9223 11.9758 26.0312C12.0883 26.1402 12.2409 26.2014 12.4 26.2014H21.1781C22.5674 26.1965 23.9355 25.8707 25.1688 25.2511C26.402 24.6316 27.4649 23.7361 28.2693 22.639C29.0736 21.5419 29.5961 20.2748 29.7935 18.943C29.9908 17.6111 29.8573 16.2529 29.4041 14.9811C29.2776 14.6049 29.1148 14.2411 28.9181 13.8944V13.8944Z" stroke="#263238" stroke-linecap="round" stroke-linejoin="round"/>
<path d="M17.2001 10.5243C17.2001 9.59966 17.5794 8.71286 18.2545 8.05904C18.9296 7.40521 19.8453 7.03792 20.8001 7.03792V4.71366C20.8009 4.52268 20.7626 4.33345 20.6875 4.15685C20.6124 3.98026 20.502 3.81978 20.3625 3.68474C20.2231 3.54969 20.0574 3.44275 19.875 3.37002C19.6927 3.29729 19.4973 3.26023 19.3001 3.261H16.3001C16.1029 3.26023 15.9075 3.29729 15.7251 3.37002C15.5428 3.44275 15.3771 3.54969 15.2376 3.68474C15.0982 3.81978 14.9877 3.98026 14.9126 4.15685C14.8375 4.33345 14.7993 4.52268 14.8001 4.71366V16.335C14.8001 16.7202 14.9581 17.0897 15.2394 17.3621C15.5207 17.6345 15.9022 17.7876 16.3001 17.7876H19.3001C19.4973 17.7884 19.6927 17.7513 19.875 17.6786C20.0574 17.6059 20.2231 17.4989 20.3625 17.3639C20.502 17.2288 20.6124 17.0684 20.6875 16.8918C20.7626 16.7152 20.8009 16.5259 20.8001 16.335V14.0107C19.8453 14.0107 18.9296 13.6434 18.2545 12.9896C17.5794 12.3358 17.2001 11.449 17.2001 10.5243Z" fill="#F37B2F"/>
<path d="M20.8001 7.03792V4.71366C20.8009 4.52268 20.7626 4.33345 20.6875 4.15685C20.6124 3.98026 20.502 3.81978 20.3625 3.68474C20.2231 3.54969 20.0574 3.44275 19.875 3.37002C19.6927 3.29729 19.4973 3.26023 19.3001 3.261H16.3001C16.1029 3.26023 15.9075 3.29729 15.7251 3.37002C15.5428 3.44275 15.3771 3.54969 15.2376 3.68474C15.0982 3.81978 14.9877 3.98026 14.9126 4.15685C14.8375 4.33345 14.7993 4.52268 14.8001 4.71366V16.335C14.8001 16.7202 14.9581 17.0897 15.2394 17.3621C15.5207 17.6345 15.9022 17.7876 16.3001 17.7876H19.3001C19.4973 17.7884 19.6927 17.7513 19.875 17.6786C20.0574 17.6059 20.2231 17.4989 20.3625 17.3639C20.502 17.2288 20.6124 17.0684 20.6875 16.8918C20.7626 16.7152 20.8009 16.5259 20.8001 16.335V14.0107" stroke="#263238" stroke-linecap="round" stroke-linejoin="round"/>
<path d="M16.6 28.2453V26.2131H19V28.2453" stroke="#263238" stroke-linecap="round" stroke-linejoin="round"/>
<path d="M14.8 4.71362H20.8" stroke="#263238" stroke-linecap="round" stroke-linejoin="round"/>
<path d="M14.8 16.3351H20.8" stroke="#263238" stroke-linecap="round" stroke-linejoin="round"/>
<path d="M6.4 21.2741C9.38233 21.2741 11.8 18.9327 11.8 16.0444C11.8 13.1561 9.38233 10.8147 6.4 10.8147C3.41766 10.8147 1 13.1561 1 16.0444C1 18.9327 3.41766 21.2741 6.4 21.2741Z" fill="#61B04C" stroke="#263238" stroke-linecap="round" stroke-linejoin="round"/>
<path d="M8.73403 17.0496C8.08576 17.6197 7.26971 17.9793 6.40002 18.0781C6.50206 17.2359 6.87338 16.4456 7.46203 15.8178C8.10895 15.2457 8.92569 14.8858 9.79604 14.7893C9.69637 15.6322 9.32473 16.4231 8.73403 17.0496Z" fill="white" stroke="#263238" stroke-linecap="round" stroke-linejoin="round"/>
<path d="M4.07174 17.0496C4.71839 17.6186 5.53217 17.9781 6.39973 18.0781C6.34211 17.2252 5.96662 16.4216 5.34307 15.8167C4.71953 15.2117 3.89038 14.8466 3.00977 14.7893C3.10944 15.6322 3.48104 16.4231 4.07174 17.0496Z" fill="white" stroke="#263238" stroke-linecap="round" stroke-linejoin="round"/>
<path d="M4.49219 18.9499L6.40019 18.0781L8.3082 18.9499" stroke="#263238" stroke-linecap="round" stroke-linejoin="round"/>
<path d="M6.40002 19.5298V18.0781" stroke="#263238" stroke-linecap="round" stroke-linejoin="round"/>
<path d="M7.29977 15.1728C7.27068 16.2014 6.96009 17.204 6.39977 18.0782C5.81244 17.216 5.49939 16.2058 5.49939 15.1728C5.49939 14.1398 5.81244 13.1296 6.39977 12.2673C6.96009 13.1416 7.27068 14.1442 7.29977 15.1728Z" fill="white" stroke="#263238" stroke-linecap="round" stroke-linejoin="round"/>
<path d="M10.3 7.90942H4.90002" stroke="#263238" stroke-linecap="round" stroke-linejoin="round"/>
<path d="M3.7 7.90942H2.5" stroke="#263238" stroke-linecap="round" stroke-linejoin="round"/>
</svg>
