<svg width="30" height="29" viewBox="0 0 30 29" fill="none" xmlns="http://www.w3.org/2000/svg">
<path d="M8.03909 1.10205L7.57032 2.1098C7.49181 2.28645 7.46094 2.47953 7.48062 2.67089C7.5003 2.86226 7.56988 3.04565 7.68282 3.20383L8.35315 4.13442C8.46593 4.28899 8.53666 4.46859 8.55878 4.65663C8.5809 4.84468 8.55372 5.0351 8.47973 5.21027L8.01096 6.32245" stroke="#263238" stroke-linecap="round" stroke-linejoin="round"/>
<path d="M5.69534 1.10205L5.22657 2.1098C5.14806 2.28645 5.11719 2.47953 5.13687 2.67089C5.15655 2.86226 5.22613 3.04565 5.33907 3.20383L6.0094 4.13442C6.12218 4.28899 6.19291 4.46859 6.21503 4.65663C6.23715 4.84468 6.20997 5.0351 6.13598 5.21027L5.66721 6.32245" stroke="#263238" stroke-linecap="round" stroke-linejoin="round"/>
<path d="M10.3828 1.10205L9.91407 2.1098C9.83556 2.28645 9.80469 2.47953 9.82437 2.67089C9.84405 2.86226 9.91363 3.04565 10.0266 3.20383L10.6969 4.13442C10.8097 4.28899 10.8804 4.46859 10.9025 4.65663C10.9247 4.84468 10.8975 5.0351 10.8235 5.21027L10.3547 6.32245" stroke="#263238" stroke-linecap="round" stroke-linejoin="round"/>
<path d="M0 21.53C0 23.336 0.740806 25.068 2.05942 26.345C3.37804 27.622 5.16645 28.3394 7.03125 28.3394H22.9688C24.8336 28.3394 26.622 27.622 27.9406 26.345C29.2592 25.068 30 23.336 30 21.53H0Z" fill="#FF810B"/>
<path d="M15 25.6156V19.0333" stroke="#263238" stroke-linecap="round" stroke-linejoin="round"/>
<path d="M2.34375 15.9691H1.40625" stroke="#263238" stroke-linecap="round" stroke-linejoin="round"/>
<path d="M7.03125 15.9691H3.28125" stroke="#263238" stroke-linecap="round" stroke-linejoin="round"/>
<path d="M27.6562 15.9691H28.5938" stroke="#263238" stroke-linecap="round" stroke-linejoin="round"/>
<path d="M22.9688 15.9691H26.7188" stroke="#263238" stroke-linecap="round" stroke-linejoin="round"/>
<path d="M26.6625 6.77649H28.5375" stroke="#263238" stroke-linecap="round" stroke-linejoin="round"/>
<path d="M24.3187 4.73364H26.1937" stroke="#263238" stroke-linecap="round" stroke-linejoin="round"/>
<path d="M25.2562 3.82593V5.64035" stroke="#263238" stroke-linecap="round" stroke-linejoin="round"/>
<path d="M27.6 5.86865V7.68323" stroke="#263238" stroke-linecap="round" stroke-linejoin="round"/>
<path d="M21.1314 14.8841C19.3848 16.5296 17.2917 17.7901 14.9954 18.5794C15.779 16.3422 17.0838 14.3097 18.8087 12.6392C20.5336 10.9688 22.6323 9.70515 24.9424 8.94629C24.1285 11.1683 22.8285 13.1938 21.1314 14.8841Z" fill="#66B352" stroke="#263238" stroke-linecap="round" stroke-linejoin="round"/>
<path d="M8.86416 14.8841C10.6094 16.529 12.7008 17.7895 14.9954 18.5794C14.2135 16.342 12.91 14.3092 11.1858 12.6386C9.46156 10.968 7.36311 9.70452 5.05322 8.94629C5.86706 11.1683 7.16703 13.1938 8.86416 14.8841Z" fill="#66B352" stroke="#263238" stroke-linecap="round" stroke-linejoin="round"/>
<path d="M19.6829 20.1682C18.0514 20.1417 16.4479 19.7535 14.9954 19.0333C16.4381 18.2882 18.0479 17.8984 19.6829 17.8984C21.3179 17.8984 22.9278 18.2882 24.3704 19.0333C22.9183 19.7544 21.3146 20.1426 19.6829 20.1682Z" fill="#66B352" stroke="#263238" stroke-linecap="round" stroke-linejoin="round"/>
<path d="M10.3079 20.1682C8.67641 20.1417 7.07286 19.7535 5.62042 19.0333C7.06307 18.2882 8.67293 17.8984 10.3079 17.8984C11.9429 17.8984 13.5528 18.2882 14.9954 19.0333C13.5433 19.7544 11.9396 20.1426 10.3079 20.1682Z" fill="#66B352" stroke="#263238" stroke-linecap="round" stroke-linejoin="round"/>
<path d="M16.8703 10.6351C16.8309 13.3088 16.1911 15.9422 14.9953 18.3524C13.7619 15.9552 13.12 13.3134 13.12 10.6351C13.12 7.95681 13.7619 5.31507 14.9953 2.91785C16.1918 5.3278 16.8316 7.96132 16.8703 10.6351Z" fill="#66B352" stroke="#263238" stroke-linecap="round" stroke-linejoin="round"/>
</svg>
