<svg width="32" height="29" viewBox="0 0 32 29" fill="none" xmlns="http://www.w3.org/2000/svg">
<path d="M26.8333 19.001H20.7222C20.4154 19.001 20.1666 19.2419 20.1666 19.539V27.0714C20.1666 27.3685 20.4154 27.6094 20.7222 27.6094H26.8333C27.1401 27.6094 27.3889 27.3685 27.3889 27.0714V19.539C27.3889 19.2419 27.1401 19.001 26.8333 19.001Z" stroke="#263238" stroke-linecap="round" stroke-linejoin="round"/>
<path d="M28.2223 20.6151H27.3889V22.2292H28.2223C28.5169 22.2292 28.7996 22.3426 29.0079 22.5444C29.2163 22.7462 29.3334 23.0199 29.3334 23.3053C29.3334 23.5907 29.2163 23.8644 29.0079 24.0662C28.7996 24.268 28.5169 24.3814 28.2223 24.3814H27.3889V25.9955H28.2223C28.959 25.9955 29.6655 25.712 30.1864 25.2075C30.7074 24.703 31 24.0188 31 23.3053C31 22.5918 30.7074 21.9076 30.1864 21.4031C29.6655 20.8985 28.959 20.6151 28.2223 20.6151V20.6151Z" stroke="#263238" stroke-linecap="round" stroke-linejoin="round"/>
<path d="M11 23.3052H3.77784C3.47102 23.3052 3.22229 23.5461 3.22229 23.8432V27.0713C3.22229 27.3684 3.47102 27.6093 3.77784 27.6093H11C11.3069 27.6093 11.5556 27.3684 11.5556 27.0713V23.8432C11.5556 23.5461 11.3069 23.3052 11 23.3052Z" fill="#F37B2F" stroke="#263238" stroke-linecap="round" stroke-linejoin="round"/>
<path d="M14.6057 5.55054V3.39842C14.8804 3.39842 15.1489 3.3195 15.3774 3.1717C15.6058 3.0239 15.7838 2.81384 15.8889 2.56806C15.994 2.32228 16.0215 2.05182 15.9679 1.7909C15.9143 1.52998 15.782 1.29032 15.5878 1.10221C15.3935 0.914098 15.1461 0.785988 14.8767 0.734088C14.6072 0.682188 14.328 0.708863 14.0742 0.810668C13.8204 0.912473 13.6035 1.08488 13.4509 1.30607C13.2983 1.52727 13.2168 1.78732 13.2168 2.05335" stroke="#263238" stroke-linecap="round" stroke-linejoin="round"/>
<path d="M12.3835 5.55054H16.8279" stroke="#263238" stroke-linecap="round" stroke-linejoin="round"/>
<path d="M12.6666 24.9192H19.0555" stroke="#263238" stroke-linecap="round" stroke-linejoin="round"/>
<path d="M22.3835 17.925V11.6355L25.439 14.5946L28.2168 11.1943L23.2168 6.35215C22.9588 6.10153 22.6523 5.90269 22.3148 5.76698C21.9774 5.63126 21.6156 5.56135 21.2501 5.56128H17.939C17.939 6.41743 17.5879 7.23847 16.9627 7.84386C16.3376 8.44925 15.4898 8.7894 14.6057 8.7894C13.7216 8.7894 12.8738 8.44925 12.2487 7.84386C11.6236 7.23847 11.2724 6.41743 11.2724 5.56128H7.98349C7.61808 5.56135 7.25628 5.63126 6.9188 5.76698C6.58133 5.90269 6.27482 6.10153 6.01684 6.35215L1.01685 11.1943L3.79462 14.5892L6.85017 11.6301V22.2238" stroke="#263238" stroke-linecap="round" stroke-linejoin="round"/>
<path d="M12.8387 21.1519L14.6109 19.2701L16.3776 21.1519" stroke="#263238" stroke-linecap="round" stroke-linejoin="round"/>
<path d="M14.6111 22.7672V19.2701" stroke="#263238" stroke-linecap="round" stroke-linejoin="round"/>
<path d="M15.7168 14.9658C15.6904 16.4638 15.3103 17.9362 14.6057 19.27C13.8762 17.9453 13.4946 16.4671 13.4946 14.9658C13.4946 13.4644 13.8762 11.9862 14.6057 10.6615C15.3112 11.995 15.6914 13.4676 15.7168 14.9658Z" fill="#61B04C" stroke="#263238" stroke-linecap="round" stroke-linejoin="round"/>
<path d="M16.8276 20.0757C16.6933 19.9264 16.5984 19.7478 16.551 19.5553C16.5036 19.3628 16.505 19.162 16.5552 18.9701C16.6054 18.7783 16.7029 18.601 16.8393 18.4536C16.9757 18.3061 17.1469 18.1927 17.3384 18.1232C17.5299 18.0537 17.7359 18.0301 17.9389 18.0545C18.1419 18.0788 18.3357 18.1504 18.5039 18.263C18.6721 18.3756 18.8096 18.5259 18.9047 18.7011C18.9997 18.8764 19.0495 19.0713 19.0498 19.2692C18.414 19.7556 17.6371 20.0375 16.8276 20.0757Z" fill="#61B04C" stroke="#263238" stroke-linecap="round" stroke-linejoin="round"/>
<path d="M12.3835 20.0757C12.5177 19.9264 12.6126 19.7478 12.6601 19.5553C12.7075 19.3628 12.7061 19.162 12.6559 18.9701C12.6057 18.7783 12.5082 18.601 12.3718 18.4536C12.2354 18.3061 12.0642 18.1927 11.8727 18.1232C11.6812 18.0537 11.4752 18.0301 11.2722 18.0545C11.0692 18.0788 10.8754 18.1504 10.7072 18.263C10.539 18.3756 10.4015 18.5259 10.3065 18.7011C10.2114 18.8764 10.1616 19.0713 10.1613 19.2692C10.7971 19.7556 11.574 20.0375 12.3835 20.0757Z" fill="#61B04C" stroke="#263238" stroke-linecap="round" stroke-linejoin="round"/>
<path d="M17.9445 17.1771C16.9891 18.0836 15.8556 18.7953 14.6111 19.27C15.1013 18.0648 15.8362 16.9671 16.7723 16.0419C17.7261 15.1335 18.86 14.4216 20.1056 13.949C19.6154 15.1542 18.8805 16.2519 17.9445 17.1771Z" fill="#61B04C" stroke="#263238" stroke-linecap="round" stroke-linejoin="round"/>
<path d="M11.2667 17.1771C12.2221 18.0836 13.3556 18.7953 14.6001 19.27C14.1236 18.0565 13.3871 16.9544 12.4391 16.0363C11.4911 15.1183 10.3531 14.4051 9.10004 13.9436C9.59311 15.1502 10.3297 16.2495 11.2667 17.1771Z" fill="#61B04C" stroke="#263238" stroke-linecap="round" stroke-linejoin="round"/>
<path d="M3.22226 27.0702H1.55556C1.40822 27.0702 1.26692 27.0135 1.16273 26.9127C1.05854 26.8119 1 26.6752 1 26.5326V25.995C1 25.8524 1.05854 25.7157 1.16273 25.6148C1.26692 25.514 1.40822 25.4574 1.55556 25.4574H3.22226V27.0702Z" stroke="#263238" stroke-linecap="round" stroke-linejoin="round"/>
<path d="M4.88892 23.3052V27.6093" stroke="#263238" stroke-linecap="round" stroke-linejoin="round"/>
<path d="M28.2222 3.93628H30.4444" stroke="#263238" stroke-linecap="round" stroke-linejoin="round"/>
<path d="M25.4445 1.7843H27.6667" stroke="#263238" stroke-linecap="round" stroke-linejoin="round"/>
<path d="M26.5555 0.708252V2.86035" stroke="#263238" stroke-linecap="round" stroke-linejoin="round"/>
<path d="M29.3334 2.86035V5.01245" stroke="#263238" stroke-linecap="round" stroke-linejoin="round"/>
</svg>
