<svg width="20" height="20" viewBox="0 0 20 20" fill="none" xmlns="http://www.w3.org/2000/svg">
<path d="M17.842 9.64935L10.342 2.14935C10.042 1.84935 9.62533 1.66602 9.16699 1.66602H3.33366C2.41699 1.66602 1.66699 2.41602 1.66699 3.33268V9.16602C1.66699 9.62435 1.85033 10.041 2.15866 10.3493L9.65866 17.8493C9.95866 18.1493 10.3753 18.3327 10.8337 18.3327C11.292 18.3327 11.7087 18.1493 12.0087 17.841L17.842 12.0077C18.1503 11.7077 18.3337 11.291 18.3337 10.8327C18.3337 10.3743 18.142 9.94935 17.842 9.64935ZM4.58366 5.83268C3.89199 5.83268 3.33366 5.27435 3.33366 4.58268C3.33366 3.89102 3.89199 3.33268 4.58366 3.33268C5.27533 3.33268 5.83366 3.89102 5.83366 4.58268C5.83366 5.27435 5.27533 5.83268 4.58366 5.83268ZM14.392 12.7243L11.1253 15.991C10.9587 16.1577 10.7003 16.1577 10.5337 15.991L7.26699 12.7243C6.79199 12.241 6.54199 11.5327 6.70866 10.7743C6.86699 10.041 7.45033 9.43268 8.17533 9.24102C8.95866 9.03268 9.71699 9.27435 10.2087 9.78268L10.8337 10.3827L11.442 9.77435C11.817 9.39935 12.342 9.16602 12.917 9.16602C14.067 9.16602 15.0003 10.0993 15.0003 11.2493C15.0003 11.8243 14.767 12.3493 14.392 12.7243V12.7243Z" fill="#CCCCCC"/>
</svg>
