<svg width="18" height="18" viewBox="0 0 18 18" fill="none" xmlns="http://www.w3.org/2000/svg">
<path d="M16.842 8.64935L9.34199 1.14935C9.04199 0.849349 8.62533 0.666016 8.16699 0.666016H2.33366C1.41699 0.666016 0.666992 1.41602 0.666992 2.33268V8.16602C0.666992 8.62435 0.850325 9.04102 1.15866 9.34935L8.65866 16.8493C8.95866 17.1493 9.37533 17.3327 9.83366 17.3327C10.292 17.3327 10.7087 17.1493 11.0087 16.841L16.842 11.0077C17.1503 10.7077 17.3337 10.291 17.3337 9.83268C17.3337 9.37435 17.142 8.94935 16.842 8.64935ZM3.58366 4.83268C2.89199 4.83268 2.33366 4.27435 2.33366 3.58268C2.33366 2.89102 2.89199 2.33268 3.58366 2.33268C4.27533 2.33268 4.83366 2.89102 4.83366 3.58268C4.83366 4.27435 4.27533 4.83268 3.58366 4.83268ZM13.392 11.7243L10.1253 14.991C9.95866 15.1577 9.70033 15.1577 9.53366 14.991L6.26699 11.7243C5.79199 11.241 5.54199 10.5327 5.70866 9.77435C5.86699 9.04102 6.45033 8.43268 7.17533 8.24102C7.95866 8.03268 8.71699 8.27435 9.20866 8.78268L9.83366 9.38268L10.442 8.77435C10.817 8.39935 11.342 8.16602 11.917 8.16602C13.067 8.16602 14.0003 9.09935 14.0003 10.2493C14.0003 10.8243 13.767 11.3493 13.392 11.7243V11.7243Z" fill="#323232"/>
</svg>
