<svg width="9" height="10" viewBox="0 0 9 10" fill="none" xmlns="http://www.w3.org/2000/svg">
<path d="M4.85449 9.99928L0.854492 7.03333L4.85449 4.06738L8.85449 7.03333L4.85449 9.99928ZM2.40523 7.03333L4.85449 8.84943L7.30375 7.03333L4.85449 5.21724L2.40523 7.03333Z" fill="black"/>
<path d="M1.08203 8.01407V1.27051L5.62935 4.64229L1.08203 8.01407ZM2.17667 3.23203V6.05255L4.07861 4.64229L2.17667 3.23203Z" fill="black"/>
<path d="M8.62545 8.01407L4.07812 4.64229L8.62545 1.27051V8.01407ZM5.62887 4.64229L7.53081 6.05255V3.23203L5.62887 4.64229Z" fill="black"/>
<path d="M6.2735 3.4428L4.85503 1.62332L3.5369 3.31429L2.59277 2.90846L4.85503 0L7.22219 3.03697L6.2735 3.4428Z" fill="black"/>
</svg>
