<svg width="45" height="41" viewBox="0 0 45 41" fill="none" xmlns="http://www.w3.org/2000/svg">
<ellipse cx="22.1982" cy="20.832" rx="21.9941" ry="19.916" fill="black" fill-opacity="0.04"/>
<path d="M9.85431 24.3652H9.00293" stroke="black" stroke-width="0.6" stroke-linecap="round" stroke-linejoin="round"/>
<path d="M14.1096 24.3652H10.7041" stroke="black" stroke-width="0.6" stroke-linecap="round" stroke-linejoin="round"/>
<path d="M34.5439 24.3652H35.3953" stroke="black" stroke-width="0.6" stroke-linecap="round" stroke-linejoin="round"/>
<path d="M30.2861 24.3652H33.6916" stroke="black" stroke-width="0.6" stroke-linecap="round" stroke-linejoin="round"/>
<path d="M31.1387 13.3789H32.8414" stroke="black" stroke-width="0.6" stroke-linecap="round" stroke-linejoin="round"/>
<path d="M29.0098 11.6445H30.7125" stroke="black" stroke-width="0.6" stroke-linecap="round" stroke-linejoin="round"/>
<path d="M29.8613 10.874V12.4159" stroke="black" stroke-width="0.6" stroke-linecap="round" stroke-linejoin="round"/>
<path d="M31.9902 12.6094V14.1512" stroke="black" stroke-width="0.6" stroke-linecap="round" stroke-linejoin="round"/>
<path d="M20.8447 23.98L22.1984 22.6309L23.5521 23.98" stroke="black" stroke-width="0.6" stroke-linecap="round" stroke-linejoin="round"/>
<path d="M22.1982 24.7509V22.6309" stroke="black" stroke-width="0.6" stroke-linecap="round" stroke-linejoin="round"/>
<path d="M23.2622 18.7766C23.2374 20.1182 22.8733 21.4368 22.198 22.6312C21.4993 21.4449 21.1338 20.1211 21.1338 18.7766C21.1338 17.432 21.4993 16.1082 22.198 14.9219C22.8742 16.116 23.2383 17.4348 23.2622 18.7766Z" fill="#66B352" stroke="black" stroke-width="0.6" stroke-linecap="round" stroke-linejoin="round"/>
<path d="M25.5101 20.7226C24.5635 21.5588 23.4358 22.2085 22.1982 22.6307C22.6498 21.5034 23.3692 20.4797 24.3055 19.6318C25.2419 18.7839 26.3724 18.1325 27.6173 17.7236C27.152 18.8447 26.4344 19.8659 25.5101 20.7226Z" fill="#66B352" stroke="black" stroke-width="0.6" stroke-linecap="round" stroke-linejoin="round"/>
<path d="M18.8913 20.7226C19.838 21.5588 20.9656 22.2085 22.2032 22.6307C21.7516 21.5034 21.0323 20.4797 20.0959 19.6318C19.1596 18.7839 18.029 18.1325 16.7842 17.7236C17.2495 18.8447 17.9671 19.8659 18.8913 20.7226Z" fill="#66B352" stroke="black" stroke-width="0.6" stroke-linecap="round" stroke-linejoin="round"/>
<path d="M19.644 23.2091C20.5331 23.1963 21.407 22.9985 22.1981 22.6309C21.412 22.2513 20.5349 22.0527 19.644 22.0527C18.7531 22.0527 17.8759 22.2513 17.0898 22.6309C17.8813 22.9977 18.755 23.1955 19.644 23.2091Z" fill="#66B352" stroke="black" stroke-width="0.6" stroke-linecap="round" stroke-linejoin="round"/>
<path d="M24.7582 23.2091C25.6472 23.1955 26.5209 22.9977 27.3124 22.6309C26.5263 22.2513 25.6491 22.0527 24.7582 22.0527C23.8674 22.0527 22.9902 22.2513 22.2041 22.6309C22.9953 22.9985 23.8692 23.1963 24.7582 23.2091Z" fill="#66B352" stroke="black" stroke-width="0.6" stroke-linecap="round" stroke-linejoin="round"/>
<path d="M24.5409 25.5215H19.8583C19.6232 25.5215 19.4326 25.6941 19.4326 25.907V26.2924C19.4326 26.5053 19.6232 26.6779 19.8583 26.6779H24.5409C24.776 26.6779 24.9666 26.5053 24.9666 26.2924V25.907C24.9666 25.6941 24.776 25.5215 24.5409 25.5215Z" fill="#FF810B" stroke="black" stroke-width="0.6" stroke-linecap="round" stroke-linejoin="round"/>
<path d="M23.5442 30.1469H20.8581C20.7561 30.1481 20.657 30.1161 20.5789 30.0566C20.5007 29.9972 20.4488 29.9144 20.4324 29.8231L19.8535 26.6777H24.5361L23.9529 29.8231C23.937 29.9118 23.8876 29.9926 23.813 30.0517C23.7384 30.1108 23.6433 30.1445 23.5442 30.1469Z" fill="#FF810B" stroke="black" stroke-width="0.6" stroke-linecap="round" stroke-linejoin="round"/>
<path d="M24.7482 30.1482H28.5794C28.6923 30.1482 28.8006 30.1075 28.8804 30.0353C28.9602 29.963 29.0051 29.8649 29.0051 29.7627V20.8969H31.8402C31.9242 20.8974 32.0065 20.8753 32.0767 20.8334C32.1469 20.7916 32.2019 20.7319 32.2346 20.6618C32.2674 20.5917 32.2765 20.5144 32.2609 20.4397C32.2452 20.3649 32.2055 20.296 32.1466 20.2416L22.5048 11.16C22.465 11.1221 22.4172 11.0919 22.3641 11.0713C22.3111 11.0507 22.2539 11.04 22.1962 11.04C22.1384 11.04 22.0813 11.0507 22.0282 11.0713C21.9752 11.0919 21.9273 11.1221 21.8876 11.16L12.2457 20.2416C12.1869 20.296 12.1471 20.3649 12.1315 20.4397C12.1158 20.5144 12.1249 20.5917 12.1577 20.6618C12.1905 20.7319 12.2454 20.7916 12.3156 20.8334C12.3858 20.8753 12.4682 20.8974 12.5522 20.8969H15.383V29.7627C15.383 29.8649 15.4279 29.963 15.5077 30.0353C15.5875 30.1075 15.6958 30.1482 15.8087 30.1482H19.6399" stroke="black" stroke-width="0.6" stroke-linecap="round" stroke-linejoin="round"/>
</svg>
