<svg width="45" height="41" viewBox="0 0 45 41" fill="none" xmlns="http://www.w3.org/2000/svg">
<ellipse cx="22.1982" cy="20.832" rx="21.9941" ry="19.916" fill="black" fill-opacity="0.04"/>
<path d="M4.56622 24.4912H3.71484" stroke="black" stroke-width="0.6" stroke-linecap="round" stroke-linejoin="round"/>
<path d="M8.82152 24.4912H5.41602" stroke="black" stroke-width="0.6" stroke-linecap="round" stroke-linejoin="round"/>
<path d="M25.8506 13.5049H27.5533" stroke="black" stroke-width="0.6" stroke-linecap="round" stroke-linejoin="round"/>
<path d="M23.7217 11.7705H25.4244" stroke="black" stroke-width="0.6" stroke-linecap="round" stroke-linejoin="round"/>
<path d="M24.5732 11V12.5419" stroke="black" stroke-width="0.6" stroke-linecap="round" stroke-linejoin="round"/>
<path d="M26.7021 12.7344V14.2762" stroke="black" stroke-width="0.6" stroke-linecap="round" stroke-linejoin="round"/>
<path d="M30.3447 24.1851L31.6984 22.8359L33.0521 24.1851" stroke="black" stroke-width="0.6" stroke-linecap="round" stroke-linejoin="round"/>
<path d="M31.6992 24.956V22.8359" stroke="black" stroke-width="0.6" stroke-linecap="round" stroke-linejoin="round"/>
<path d="M32.7622 18.9807C32.7374 20.3223 32.3733 21.6409 31.698 22.8353C30.9993 21.649 30.6338 20.3252 30.6338 18.9807C30.6338 17.6361 30.9993 16.3123 31.698 15.126C32.3742 16.3201 32.7383 17.6389 32.7622 18.9807Z" fill="#66B352" stroke="black" stroke-width="0.6" stroke-linecap="round" stroke-linejoin="round"/>
<path d="M35.0111 20.9267C34.0644 21.7629 32.9368 22.4126 31.6992 22.8348C32.1508 21.7075 32.8702 20.6838 33.8065 19.8359C34.7429 18.988 35.8734 18.3366 37.1183 17.9277C36.6529 19.0488 35.9354 20.07 35.0111 20.9267Z" fill="#66B352" stroke="black" stroke-width="0.6" stroke-linecap="round" stroke-linejoin="round"/>
<path d="M28.3913 20.9267C29.338 21.7629 30.4656 22.4126 31.7032 22.8348C31.2516 21.7075 30.5323 20.6838 29.5959 19.8359C28.6596 18.988 27.529 18.3366 26.2842 17.9277C26.7495 19.0488 27.4671 20.07 28.3913 20.9267Z" fill="#66B352" stroke="black" stroke-width="0.6" stroke-linecap="round" stroke-linejoin="round"/>
<path d="M29.145 23.4142C30.034 23.4014 30.9079 23.2035 31.6991 22.836C30.913 22.4564 30.0358 22.2578 29.145 22.2578C28.2541 22.2578 27.3769 22.4564 26.5908 22.836C27.3823 23.2028 28.256 23.4006 29.145 23.4142Z" fill="#66B352" stroke="black" stroke-width="0.6" stroke-linecap="round" stroke-linejoin="round"/>
<path d="M34.2573 23.4142C35.1462 23.4006 36.0199 23.2028 36.8114 22.836C36.0253 22.4564 35.1481 22.2578 34.2573 22.2578C33.3664 22.2578 32.4892 22.4564 31.7031 22.836C32.4943 23.2035 33.3682 23.4014 34.2573 23.4142Z" fill="#66B352" stroke="black" stroke-width="0.6" stroke-linecap="round" stroke-linejoin="round"/>
<path d="M34.0419 25.7266H29.3593C29.1242 25.7266 28.9336 25.8991 28.9336 26.112V26.4975C28.9336 26.7104 29.1242 26.883 29.3593 26.883H34.0419C34.277 26.883 34.4675 26.7104 34.4675 26.4975V26.112C34.4675 25.8991 34.277 25.7266 34.0419 25.7266Z" fill="#FF810B" stroke="black" stroke-width="0.6" stroke-linecap="round" stroke-linejoin="round"/>
<path d="M33.0442 30.352H30.3581C30.2561 30.3532 30.157 30.3212 30.0789 30.2617C30.0007 30.2023 29.9488 30.1194 29.9324 30.0282L29.3535 26.8828H34.0361L33.4529 30.0282C33.437 30.1168 33.3876 30.1977 33.313 30.2568C33.2384 30.3159 33.1433 30.3496 33.0442 30.352Z" fill="#FF810B" stroke="black" stroke-width="0.6" stroke-linecap="round" stroke-linejoin="round"/>
<path d="M19.4611 30.2741H23.2923C23.4052 30.2741 23.5135 30.2335 23.5933 30.1612C23.6731 30.0889 23.718 29.9909 23.718 29.8887V21.0229H26.553C26.6371 21.0234 26.7194 21.0013 26.7896 20.9594C26.8598 20.9176 26.9148 20.8579 26.9475 20.7878C26.9803 20.7177 26.9894 20.6404 26.9738 20.5656C26.9581 20.4909 26.9184 20.422 26.8595 20.3676L17.2177 11.286C17.1779 11.2481 17.1301 11.2179 17.077 11.1973C17.0239 11.1767 16.9668 11.166 16.9091 11.166C16.8513 11.166 16.7942 11.1767 16.7411 11.1973C16.6881 11.2179 16.6402 11.2481 16.6004 11.286L6.95859 20.3676C6.89975 20.422 6.86003 20.4909 6.84437 20.5656C6.82871 20.6404 6.83784 20.7177 6.87061 20.7878C6.90339 20.8579 6.95833 20.9176 7.02853 20.9594C7.09873 21.0013 7.18105 21.0234 7.2651 21.0229H10.0959V29.8887C10.0959 29.9909 10.1408 30.0889 10.2206 30.1612C10.3004 30.2335 10.4087 30.2741 10.5216 30.2741H14.3528" stroke="black" stroke-width="0.6" stroke-linecap="round" stroke-linejoin="round"/>
</svg>
