<svg width="25" height="27" viewBox="0 0 25 27" fill="none" xmlns="http://www.w3.org/2000/svg">
<path d="M22.7137 11.413H21.8747V11.3694H12.4997V15.5659H18.3867C17.5278 18.0087 15.22 19.7623 12.4997 19.7623C9.04811 19.7623 6.24967 16.9439 6.24967 13.4676C6.24967 9.99142 9.04811 7.17299 12.4997 7.17299C14.0929 7.17299 15.5424 7.77833 16.646 8.76711L19.5924 5.79971C17.732 4.05347 15.2434 2.97656 12.4997 2.97656C6.74707 2.97656 2.08301 7.67394 2.08301 13.4676C2.08301 19.2613 6.74707 23.9587 12.4997 23.9587C18.2523 23.9587 22.9163 19.2613 22.9163 13.4676C22.9163 12.7642 22.8445 12.0776 22.7137 11.413Z" fill="#FFC107"/>
<path d="M3.28418 8.58457L6.70658 11.1124C7.63262 8.80331 9.87533 7.17299 12.4998 7.17299C14.093 7.17299 15.5425 7.77833 16.6462 8.76711L19.5925 5.79971C17.7321 4.05347 15.2436 2.97656 12.4998 2.97656C8.49876 2.97656 5.02897 5.25155 3.28418 8.58457Z" fill="#FF3D00"/>
<path d="M12.5 23.9583C15.1906 23.9583 17.6354 22.9212 19.4839 21.2348L16.2599 18.4872C15.1789 19.3151 13.8581 19.7629 12.5 19.7619C9.79062 19.7619 7.4901 18.0219 6.62344 15.5938L3.22656 18.2296C4.95052 21.6272 8.45156 23.9583 12.5 23.9583Z" fill="#4CAF50"/>
<path d="M22.7141 11.4146H21.875V11.3711H12.5V15.5675H18.387C17.9762 16.7302 17.2361 17.7461 16.2583 18.4898L16.2599 18.4888L19.4839 21.2364C19.2557 21.4452 22.9167 18.7148 22.9167 13.4693C22.9167 12.7659 22.8448 12.0792 22.7141 11.4146Z" fill="#1976D2"/>
</svg>
