<svg width="10" height="8" viewBox="0 0 10 8" fill="none" xmlns="http://www.w3.org/2000/svg">
<path d="M0.5 4.49562H8.293L5.611 7.15406C5.41575 7.34759 5.41575 7.66144 5.61087 7.85485C5.80612 8.04838 6.12287 8.04838 6.31812 7.85485L9.8535 4.3504C9.87675 4.32736 9.8975 4.30196 9.91575 4.27495C9.92412 4.26243 9.93 4.24893 9.93725 4.23592C9.9455 4.22055 9.955 4.20593 9.96163 4.1897C9.96875 4.17298 9.97275 4.15563 9.97775 4.13828C9.98187 4.12453 9.98725 4.1114 9.99012 4.09727C9.99662 4.06506 10 4.03259 10 4.00001L9.99988 3.99889C9.99975 3.9668 9.9965 3.93459 9.99012 3.90299C9.98712 3.88812 9.9815 3.87437 9.97712 3.85975C9.97225 3.84327 9.9685 3.82655 9.96175 3.81056C9.9545 3.79334 9.94475 3.77773 9.93575 3.7615C9.929 3.74935 9.92363 3.73696 9.91588 3.72532C9.89763 3.69793 9.87662 3.67241 9.85325 3.64924L6.318 0.145167C6.12275 -0.0483682 5.80612 -0.0483683 5.61087 0.145043C5.41562 0.338578 5.41562 0.652422 5.61087 0.846081L8.29288 3.5044H0.5C0.223875 3.5044 0 3.72631 0 4.00001C0 4.27371 0.223875 4.49562 0.5 4.49562Z" fill="#666666"/>
</svg>
