<svg width="82" height="25" viewBox="0 0 82 25" fill="none" xmlns="http://www.w3.org/2000/svg">
<g clip-path="url(#clip0_24_5840)">
<path d="M11.477 20.1594L4.91541 14.1804L11.477 8.20142L18.0385 14.1804L11.477 20.1594ZM7.45922 14.1804L11.477 17.8415L15.4947 14.1804L11.477 10.5194L7.45922 14.1804Z" fill="black"/>
<path d="M5.28955 16.1577V2.56348L12.7489 9.36059L5.28955 16.1577ZM7.08519 6.51766V12.2035L10.2051 9.36059L7.08519 6.51766Z" fill="black"/>
<path d="M17.6643 16.1577L10.205 9.36059L17.6643 2.56348V16.1577ZM12.7488 9.36059L15.8687 12.2035V6.51766L12.7488 9.36059Z" fill="black"/>
<path d="M16.7665 24.9794L10.205 19.0004L22.954 7.3833V19.3413L16.7665 24.9794ZM12.7488 19.0004L16.7665 22.6615L20.7842 19.0004L16.7665 15.3394L12.7488 19.0004ZM18.0384 14.1804L21.1583 17.0233V11.3307L18.0384 14.1804Z" fill="black"/>
<path d="M6.18746 24.9794L0 19.3413V7.3833L12.749 19.0004L6.18746 24.9794ZM2.16973 19.0004L6.18746 22.6615L10.2052 19.0004L6.18746 15.3394L2.16973 19.0004ZM1.79563 11.3375V17.0302L4.91555 14.1804L1.79563 11.3375Z" fill="black"/>
<path d="M12.375 19.0005H10.5793V24.9931H12.375V19.0005Z" fill="black"/>
<path d="M13.8038 6.94028L11.477 3.27243L9.31473 6.68121L7.76599 5.8631L11.477 0L15.36 6.12217L13.8038 6.94028Z" fill="black"/>
</g>
<path d="M28.3575 13.7498H30.334V11.3386L31.3063 10.2614L33.8671 13.7498H36.2317L32.7214 9.06405L36.1906 5.26493H33.8215L30.4573 9.00605H30.334V5.26493H28.3575V13.7498Z" fill="black"/>
<path d="M42.9944 5.26493V10.6218C42.9944 11.5913 42.2457 12.2914 41.0954 12.2914C39.9497 12.2914 39.1965 11.5913 39.1965 10.6218V5.26493H37.22V10.7751C37.22 12.6312 38.7628 13.8699 41.0954 13.8699C43.4189 13.8699 44.9709 12.6312 44.9709 10.7751V5.26493H42.9944Z" fill="black"/>
<path d="M51.6685 7.70515H53.5629C53.5355 6.19296 52.1661 5.14893 50.0846 5.14893C48.035 5.14893 46.5332 6.17639 46.5423 7.71758C46.5378 8.96876 47.5101 9.6855 49.0895 10.0294L50.1074 10.2614C51.1253 10.4851 51.6914 10.7503 51.6959 11.322C51.6914 11.9434 51.0432 12.366 50.0389 12.366C49.0119 12.366 48.2724 11.9351 48.2085 11.0858H46.2958C46.346 12.9212 47.7931 13.8699 50.0618 13.8699C52.3441 13.8699 53.6862 12.8797 53.6907 11.3261C53.6862 9.91337 52.513 9.16349 50.888 8.83205L50.0481 8.64975C49.2355 8.47989 48.5554 8.20645 48.5691 7.59743C48.5691 7.05056 49.1032 6.64869 50.0709 6.64869C51.0158 6.64869 51.5955 7.03813 51.6685 7.70515Z" fill="black"/>
<path d="M55.0202 13.7498H56.9968V10.2448H61.0092V13.7498H62.9812V5.26493H61.0092V8.76576H56.9968V5.26493H55.0202V13.7498Z" fill="black"/>
<path d="M73.2016 9.50735C73.2016 6.73155 71.3027 5.14893 68.824 5.14893C66.3317 5.14893 64.4464 6.73155 64.4464 9.50735C64.4464 12.2707 66.3317 13.8658 68.824 13.8658C71.3027 13.8658 73.2016 12.2832 73.2016 9.50735ZM71.1977 9.50735C71.1977 11.3054 70.2574 12.279 68.824 12.279C67.3861 12.279 66.4504 11.3054 66.4504 9.50735C66.4504 7.7093 67.3861 6.73569 68.824 6.73569C70.2574 6.73569 71.1977 7.7093 71.1977 9.50735Z" fill="black"/>
<path d="M74.6658 13.7498H76.6423V10.9988H78.3039C80.4539 10.9988 81.7046 9.83465 81.7046 8.14017C81.7046 6.45397 80.4767 5.26493 78.3541 5.26493H74.6658V13.7498ZM76.6423 9.56121V6.73155H77.9752C79.1164 6.73155 79.6688 7.295 79.6688 8.14017C79.6688 8.98119 79.1164 9.56121 77.9844 9.56121H76.6423Z" fill="black"/>
<path d="M30.1703 18.9853H30.7533C30.7357 18.403 30.1684 17.9804 29.3545 17.9804C28.5505 17.9804 27.9343 18.3976 27.9343 19.0244C27.9343 19.5304 28.3333 19.827 28.977 19.985L29.4504 20.1022C29.8788 20.2052 30.2095 20.333 30.2095 20.6561C30.2095 21.0113 29.8358 21.2456 29.3213 21.2456C28.8557 21.2456 28.4683 21.0574 28.4331 20.6615H27.8267C27.8658 21.3202 28.4273 21.7268 29.3252 21.7268C30.2662 21.7268 30.8081 21.2776 30.8081 20.6615C30.8081 20.0063 30.1645 19.7524 29.6558 19.6387L29.2646 19.5464C28.9515 19.4736 28.5348 19.3405 28.5368 18.9924C28.5368 18.6835 28.8479 18.4544 29.3409 18.4544C29.8006 18.4544 30.1273 18.6498 30.1703 18.9853Z" fill="black"/>
<path d="M32.6323 21.6664H35.1677V21.1941H33.2368V20.0809H35.0131V19.6103H33.2368V18.5024H35.1442V18.0301H32.6323V21.6664Z" fill="black"/>
<path d="M37.0535 21.6664H39.5889V21.1941H37.658V20.0809H39.4343V19.6103H37.658V18.5024H39.5654V18.0301H37.0535V21.6664Z" fill="black"/>
<path d="M42.7717 21.6664C43.9925 21.6664 44.6987 20.9793 44.6987 19.8429C44.6987 18.7119 43.9925 18.0301 42.8128 18.0301H41.4747V21.6664H42.7717ZM42.0792 21.187V18.5095H42.7756C43.6521 18.5095 44.104 18.9853 44.104 19.8429C44.104 20.7041 43.6521 21.187 42.7384 21.187H42.0792Z" fill="black"/>
<path d="M51.2972 18.9853H51.8802C51.8625 18.403 51.2952 17.9804 50.4814 17.9804C49.6773 17.9804 49.0611 18.3976 49.0611 19.0244C49.0611 19.5304 49.4602 19.827 50.1038 19.985L50.5772 20.1022C51.0057 20.2052 51.3363 20.333 51.3363 20.6561C51.3363 21.0113 50.9626 21.2456 50.4481 21.2456C49.9825 21.2456 49.5952 21.0574 49.56 20.6615H48.9535C48.9926 21.3202 49.5541 21.7268 50.452 21.7268C51.393 21.7268 51.9349 21.2776 51.9349 20.6615C51.9349 20.0063 51.2913 19.7524 50.7827 19.6387L50.3914 19.5464C50.0784 19.4736 49.6617 19.3405 49.6636 18.9924C49.6636 18.6835 49.9747 18.4544 50.4677 18.4544C50.9274 18.4544 51.2541 18.6498 51.2972 18.9853Z" fill="black"/>
<path d="M53.7591 21.6664H54.3636V20.0809H56.361V21.6664H56.9675V18.0301H56.361V19.6103H54.3636V18.0301H53.7591V21.6664Z" fill="black"/>
<path d="M62.4299 19.8483C62.4299 18.6853 61.663 17.9804 60.6262 17.9804C59.5854 17.9804 58.8205 18.6853 58.8205 19.8483C58.8205 21.0095 59.5854 21.7162 60.6262 21.7162C61.663 21.7162 62.4299 21.0113 62.4299 19.8483ZM61.8313 19.8483C61.8313 20.7343 61.3148 21.2155 60.6262 21.2155C59.9356 21.2155 59.4211 20.7343 59.4211 19.8483C59.4211 18.9623 59.9356 18.4811 60.6262 18.4811C61.3148 18.4811 61.8313 18.9623 61.8313 19.8483Z" fill="black"/>
<path d="M64.2854 21.6664H64.8899V20.388H65.7116C66.6408 20.388 67.1006 19.8784 67.1006 19.2073C67.1006 18.5379 66.6447 18.0301 65.7135 18.0301H64.2854V21.6664ZM64.8899 19.9228V18.5006H65.649C66.2476 18.5006 66.4921 18.7954 66.4921 19.2073C66.4921 19.6192 66.2476 19.9228 65.6568 19.9228H64.8899Z" fill="black"/>
<defs>
<clipPath id="clip0_24_5840">
<rect width="22.9542" height="25" fill="white"/>
</clipPath>
</defs>
</svg>
