<svg width="14" height="15" viewBox="0 0 14 15" fill="none" xmlns="http://www.w3.org/2000/svg">
<path fill-rule="evenodd" clip-rule="evenodd" d="M9.76438 8.74482C11.4893 6.80941 11.5539 3.90899 9.78868 1.89532C7.82104 -0.349311 4.32498 -0.642091 1.98003 1.24138C-0.364922 3.12485 -0.670787 6.47135 1.29686 8.71598C3.06236 10.73 6.05834 11.1726 8.34923 9.88177L11.9616 14.0027L13.3769 12.8659L9.76438 8.74482ZM8.37291 3.03228C9.68468 4.5287 9.48077 6.7597 7.91747 8.01535C6.35417 9.271 4.02346 9.07581 2.7117 7.57939C1.39993 6.08296 1.60384 3.85197 3.16714 2.59632C4.73045 1.34067 7.06115 1.53586 8.37291 3.03228Z" fill="#BFBFBF"/>
</svg>
