<svg width="30" height="26" viewBox="0 0 30 26" fill="none" xmlns="http://www.w3.org/2000/svg">
<path d="M9.4377 25.1877C20.7557 25.1877 26.9479 15.8086 26.9479 7.67751C26.9479 7.41384 26.942 7.14431 26.9303 6.88063C28.1348 6.00951 29.1744 4.9305 30 3.69431C28.8782 4.19343 27.6871 4.51941 26.4674 4.6611C27.7516 3.89132 28.7132 2.68202 29.1738 1.25739C27.9657 1.97338 26.6445 2.47845 25.2668 2.75095C24.3385 1.76463 23.1112 1.11158 21.7746 0.892747C20.438 0.673915 19.0665 0.901496 17.8722 1.5403C16.6779 2.17911 15.7273 3.19357 15.1673 4.42682C14.6074 5.66008 14.4693 7.04345 14.7744 8.36306C12.3281 8.2403 9.93492 7.60481 7.74998 6.49781C5.56503 5.3908 3.63712 3.83698 2.09121 1.93708C1.3055 3.29174 1.06507 4.89474 1.41879 6.4203C1.77251 7.94585 2.69383 9.27949 3.99551 10.1502C3.01829 10.1191 2.06247 9.85603 1.20703 9.38259V9.45876C1.20616 10.8804 1.69762 12.2584 2.59789 13.3586C3.49815 14.4589 4.75165 15.2134 6.14531 15.4939C5.24007 15.7416 4.28998 15.7777 3.36855 15.5994C3.76182 16.822 4.52697 17.8913 5.55721 18.6581C6.58746 19.4249 7.8314 19.8509 9.11543 19.8767C6.93553 21.5891 4.24272 22.5178 1.4707 22.5134C0.979109 22.5127 0.487999 22.4826 0 22.4232C2.81607 24.2299 6.09191 25.1894 9.4377 25.1877Z" fill="black"/>
</svg>
