<svg width="21" height="20" viewBox="0 0 21 20" fill="none" xmlns="http://www.w3.org/2000/svg">
<path d="M10.4915 10.707C7.29199 10.707 4.68921 8.30469 4.68921 5.35156C4.68921 2.39844 7.29199 0 10.4915 0C13.691 0 16.2938 2.40234 16.2938 5.35547C16.2938 8.30859 13.691 10.707 10.4915 10.707ZM10.4915 0.796875C7.77023 0.796875 5.5568 2.83984 5.5568 5.35156C5.5568 7.86328 7.77023 9.91016 10.4915 9.91016C13.2128 9.91016 15.4262 7.86719 15.4262 5.35547C15.4262 2.84375 13.2128 0.796875 10.4915 0.796875Z" fill="black"/>
<path d="M20.5599 20C20.3229 20 20.1282 19.8203 20.1282 19.6016C20.1282 14.6992 15.8071 10.7109 10.4958 10.7109C5.1844 10.7109 0.863362 14.6992 0.863362 19.6016C0.863362 19.8203 0.668682 20 0.431681 20C0.19468 20 0 19.8203 0 19.6016C0 17.0117 1.0919 14.5781 3.07678 12.75C5.06167 10.9219 7.69831 9.91016 10.5 9.91016C13.3017 9.91016 15.9426 10.918 17.9232 12.75C19.9039 14.582 21 17.0156 21 19.6016C20.9915 19.8203 20.7969 20 20.5599 20Z" fill="black"/>
</svg>
