<svg width="50" height="50" viewBox="0 0 50 50" fill="none" xmlns="http://www.w3.org/2000/svg">
<rect width="50" height="50" rx="25" fill="white" fill-opacity="0.5"/>
<rect x="0.5" y="0.5" width="49" height="49" rx="24.5" stroke="black" stroke-opacity="0.1"/>
<path d="M35.7137 23.4586H34.8747V23.4154H25.4997V27.582H31.3867C30.5278 30.0076 28.22 31.7487 25.4997 31.7487C22.0481 31.7487 19.2497 28.9503 19.2497 25.4987C19.2497 22.0471 22.0481 19.2487 25.4997 19.2487C27.0929 19.2487 28.5424 19.8497 29.646 20.8315L32.5924 17.8852C30.732 16.1513 28.2434 15.082 25.4997 15.082C19.7471 15.082 15.083 19.7461 15.083 25.4987C15.083 31.2513 19.7471 35.9154 25.4997 35.9154C31.2523 35.9154 35.9163 31.2513 35.9163 25.4987C35.9163 24.8003 35.8445 24.1185 35.7137 23.4586Z" fill="#FFC107"/>
<path d="M16.2842 20.6503L19.7066 23.1602C20.6326 20.8674 22.8753 19.2487 25.4998 19.2487C27.093 19.2487 28.5425 19.8497 29.6462 20.8315L32.5925 17.8852C30.7321 16.1513 28.2436 15.082 25.4998 15.082C21.4988 15.082 18.029 17.3409 16.2842 20.6503Z" fill="#FF3D00"/>
<path d="M25.5 35.9185C28.1906 35.9185 30.6354 34.8888 32.4839 33.2143L29.2599 30.4862C28.1789 31.3083 26.8581 31.7529 25.5 31.7518C22.7906 31.7518 20.4901 30.0242 19.6234 27.6133L16.2266 30.2305C17.9505 33.6039 21.4516 35.9185 25.5 35.9185Z" fill="#4CAF50"/>
<path d="M35.7141 23.4612H34.875V23.418H25.5V27.5846H31.387C30.9762 28.739 30.2361 29.7477 29.2583 30.4862L29.2599 30.4852L32.4839 33.2133C32.2557 33.4206 35.9167 30.7096 35.9167 25.5013C35.9167 24.8029 35.8448 24.1211 35.7141 23.4612Z" fill="#1976D2"/>
</svg>
