<svg width="16" height="17" viewBox="0 0 16 17" fill="none" xmlns="http://www.w3.org/2000/svg">
<path d="M1.83899 8.20234L7.76714 1.82734C8.00426 1.57234 8.3336 1.4165 8.69588 1.4165H13.3067C14.0312 1.4165 14.624 2.054 14.624 2.83317V7.7915C14.624 8.18109 14.4791 8.53525 14.2354 8.79734L8.30726 15.1723C8.07013 15.4273 7.74079 15.5832 7.37851 15.5832C7.01624 15.5832 6.6869 15.4273 6.44977 15.1653L1.83899 10.2069C1.59528 9.95192 1.45037 9.59775 1.45037 9.20817C1.45037 8.81859 1.60187 8.45734 1.83899 8.20234ZM7.37851 14.1736L13.3067 7.7915V2.83317H8.69588V2.82609L2.76773 9.20109L7.37851 14.1736V14.1736Z" fill="black"/>
<path d="M11.6604 5.6665C11.1147 5.6665 10.6724 5.19081 10.6724 4.604C10.6724 4.0172 11.1147 3.5415 11.6604 3.5415C12.2061 3.5415 12.6484 4.0172 12.6484 4.604C12.6484 5.19081 12.2061 5.6665 11.6604 5.6665Z" fill="black"/>
</svg>
