<svg width="20" height="14" viewBox="0 0 20 14" fill="none" xmlns="http://www.w3.org/2000/svg">
<path d="M16.6673 3.66536H14.1673V0.332031H2.50065C1.58398 0.332031 0.833984 1.08203 0.833984 1.9987V11.1654H2.50065C2.50065 12.5487 3.61732 13.6654 5.00065 13.6654C6.38398 13.6654 7.50065 12.5487 7.50065 11.1654H12.5007C12.5007 12.5487 13.6173 13.6654 15.0006 13.6654C16.384 13.6654 17.5006 12.5487 17.5006 11.1654H19.1673V6.9987L16.6673 3.66536ZM16.2506 4.91536L17.884 6.9987H14.1673V4.91536H16.2506ZM5.00065 11.9987C4.54232 11.9987 4.16732 11.6237 4.16732 11.1654C4.16732 10.707 4.54232 10.332 5.00065 10.332C5.45898 10.332 5.83398 10.707 5.83398 11.1654C5.83398 11.6237 5.45898 11.9987 5.00065 11.9987ZM6.85065 9.4987C6.39232 8.99036 5.74232 8.66536 5.00065 8.66536C4.25898 8.66536 3.60898 8.99036 3.15065 9.4987H2.50065V1.9987H12.5007V9.4987H6.85065ZM15.0006 11.9987C14.5423 11.9987 14.1673 11.6237 14.1673 11.1654C14.1673 10.707 14.5423 10.332 15.0006 10.332C15.459 10.332 15.834 10.707 15.834 11.1654C15.834 11.6237 15.459 11.9987 15.0006 11.9987Z" fill="black"/>
<path d="M8.07955 3.63636H9.24716V6.62784C9.24574 6.91193 9.17401 7.16193 9.03196 7.37784C8.89134 7.59233 8.69673 7.75994 8.44815 7.88068C8.20099 8 7.91619 8.05966 7.59375 8.05966C7.31392 8.05966 7.05824 8.01136 6.8267 7.91477C6.59517 7.81676 6.41051 7.66335 6.27273 7.45455C6.13494 7.24432 6.06676 6.97159 6.06818 6.63636H7.25284C7.2571 6.74574 7.27557 6.83807 7.30824 6.91335C7.34233 6.98864 7.3892 7.04545 7.44886 7.08381C7.50994 7.12074 7.58381 7.1392 7.67045 7.1392C7.75852 7.1392 7.83239 7.12003 7.89205 7.08168C7.95313 7.04332 7.99929 6.98651 8.03054 6.91122C8.06179 6.83452 8.07813 6.74006 8.07955 6.62784V3.63636Z" fill="black"/>
</svg>
